<svg width="332" height="348" viewBox="0 0 332 348" fill="none" xmlns="http://www.w3.org/2000/svg">
<path d="M246.696 273.209L258.592 283.891L251.073 287.089C251.073 287.089 243.279 274.933 243.589 274.038C243.889 273.143 246.696 273.209 246.696 273.209Z" fill="#ED5353"/>
<path d="M247.07 273.38C247.07 273.38 245.082 268.596 243.262 267.711C241.925 267.066 239.225 266.705 237.888 266.557C237.664 266.532 237.547 266.811 237.73 266.939L239.423 268.164L237.166 267.976L236.958 269.593C236.871 270.274 237.334 270.899 238.03 271.036L241.569 271.728C241.569 271.728 240.832 273.055 244.452 275.251C245.301 275.765 247.07 273.38 247.07 273.38Z" fill="#ED5353"/>
<path d="M210.197 276.059C210.197 276.059 221.454 279.217 231.744 312.782L252.93 298.816C252.93 298.816 255.096 274.799 233.086 261.219L210.197 276.059Z" fill="#C2D8F0"/>
<path d="M240.517 178.719C229.662 172.221 216.291 171.845 205.375 177.733L118.523 224.573L93.8745 237.756C77.8187 246.343 76.6849 268.887 91.7595 279.736C112.015 294.313 138.585 296.311 160.218 284.876L189.711 269.288L259.095 228.808C273.956 220.14 273.712 198.583 258.647 189.569L240.517 178.719Z" fill="#C2D8F0"/>
<path d="M181.196 248.299C173.635 248.299 167.504 242.168 167.504 234.608V61.375H194.892V234.608C194.887 242.168 188.761 248.299 181.196 248.299Z" fill="#0D3B6E"/>
<path d="M166.854 169.103L167.504 61.375H194.888V169.103H166.854Z" fill="#0A2B52"/>
<path d="M223.31 5.75025L219.965 3.81827C208.77 -2.2929 196.222 -0.488016 184.666 6.15191L92.5762 59.0221L156.103 175.287L249.896 121.318C252.89 119.595 254.731 116.407 254.731 112.955V60.1864C254.736 37.7297 242.757 16.9812 223.31 5.75025Z" fill="url(#paint0_linear_417_51256)"/>
<path d="M156.106 175.287L73.6309 127.668V88.1135C73.6309 63.6333 100.135 48.3299 121.336 60.5726L124.681 62.5046C144.128 73.7304 156.106 94.484 156.106 116.936V175.287Z" fill="#13549C"/>
<path d="M148.726 87.4023L73.623 127.674L156.098 175.292V116.936C156.104 106.453 153.49 96.3454 148.726 87.4023Z" fill="#1A77DE"/>
<path d="M73.6298 127.668L47.5074 143.114C28.0706 154.604 27.9791 182.699 47.3447 194.316C70.5437 208.237 99.4879 208.399 122.839 194.743L156.105 175.291V170.1L73.6298 127.668Z" fill="#1257A1"/>
<path d="M74.231 127.668L47.4984 141.416C28.0616 152.906 27.9854 177.503 47.3459 189.12C70.5449 203.041 99.4891 203.203 122.841 189.547L156.106 170.095L74.231 127.668Z" fill="#1563B8"/>
<path d="M208.017 125.556C210.983 120.535 210.797 114.934 207.601 113.046C204.405 111.158 199.409 113.698 196.443 118.72C193.477 123.741 193.663 129.342 196.859 131.23C200.055 133.118 205.051 130.578 208.017 125.556Z" fill="#0D3B6E"/>
<path d="M211.747 127.027C214.714 122.006 214.527 116.405 211.331 114.517C208.135 112.629 203.14 115.169 200.173 120.19C197.207 125.212 197.394 130.813 200.59 132.701C203.786 134.589 208.781 132.049 211.747 127.027Z" fill="white"/>
<path d="M202.703 46.3172L227.29 33.9678V51.8183L202.703 65.8251V46.3172Z" fill="#C24444"/>
<path opacity="0.27" d="M156.106 144.95L108.803 163.349L74.2305 141.864L131.387 119.636L156.106 134.995V144.95Z" fill="#1257A1"/>
<path d="M205.735 127.668C204.063 127.668 202.705 126.311 202.705 124.638V42.6356C202.705 40.9629 204.063 39.6055 205.735 39.6055C207.408 39.6055 208.765 40.9629 208.765 42.6356V124.638C208.765 126.311 207.408 127.668 205.735 127.668Z" fill="#0D3B6E"/>
<path d="M202.702 47.3131L202.763 47.3538C206.47 49.6722 211.142 49.8043 214.97 47.6995L231.575 38.5938L231.403 57.5882L214.92 66.9787C211.117 69.1445 206.444 69.0835 202.697 66.8261V47.3131H202.702Z" fill="#ED5353"/>
<path d="M307.717 273.482C320.858 273.13 331.348 266.776 331.148 259.29C330.947 251.804 320.131 246.021 306.99 246.374C293.848 246.726 283.358 253.08 283.559 260.566C283.759 268.051 294.575 273.834 307.717 273.482Z" fill="#C2D8F0"/>
<path d="M292.457 259.989L299.016 253.67C299.895 253.141 301.883 252.78 303.23 252.821C303.835 252.841 304.298 253.248 304.344 253.781L304.445 254.936C304.659 256.588 304.486 256.842 303.327 257.539L296.418 261.667C295.253 262.363 293.474 262.582 292.462 262.155L292.177 262.033C291.171 261.601 291.293 260.681 292.457 259.989Z" fill="#343456"/>
<path d="M303.452 253.543C303.264 255.851 298.525 256.476 298.54 254.127C293.792 232.108 293.929 212.153 293.848 189.081L308.76 177.601C306.726 197.531 304.163 214.374 303.762 231.64C303.711 233.877 304.723 236.297 304.753 238.453C304.819 242.932 303.258 249.181 303.452 253.543Z" fill="#ED5353"/>
<path d="M302.598 254.906C302.598 254.906 297.666 257.875 296.613 257.397C295.724 256.99 299.227 253.838 299.227 253.838L302.598 254.906Z" fill="#ED5353"/>
<path d="M323.474 257.564L323.794 246.857C324.094 245.86 325.462 245.718 326.585 244.828C327.089 244.427 327.78 244.422 328.238 244.793L329.219 245.591C330.683 246.689 330.744 246.994 330.348 248.311L327.989 256.12C327.592 257.437 326.321 258.815 325.172 259.181L324.847 259.288C323.693 259.654 323.072 258.881 323.474 257.564Z" fill="#343456"/>
<path d="M327.33 245.118C327.33 245.118 326.399 251.916 324.706 252.246C324.706 252.246 323.618 252.455 323.674 250.726C323.725 248.997 323.445 245.627 323.445 245.627L327.33 245.118Z" fill="#ED5353"/>
<path d="M327.109 244.426C328.208 246.043 326.189 249.073 324.445 247.975C318.426 242.397 313.921 238.04 309.64 233.704C306.396 230.419 307.083 222.33 304.612 217.714C298.714 206.696 312.05 200.58 315.578 212.945C317.017 217.999 314.048 222.62 315.36 227.079C316.067 229.479 318.726 229.626 320.891 233.256C323.083 236.942 324.018 239.138 327.109 244.426Z" fill="#ED5353"/>
<path d="M265.127 172.861C266.495 172.236 267.206 170.772 266.703 169.608L263.835 165.749C263.337 164.584 264.019 163.598 262.651 164.223C261.283 164.849 260.2 165.672 260.693 168.108L262.178 171.367C262.371 171.789 262.615 172.19 262.931 172.526C263.51 173.151 264.049 173.349 265.127 172.861Z" fill="#ED5353"/>
<path d="M312.564 137.131C315.04 147.385 330.231 140.827 326.215 156.928C324.283 164.666 304.536 160.045 304.536 160.045L300.469 136.917L312.564 137.131Z" fill="#233B6E"/>
<path d="M297.056 147.481L278.377 160.456C277.38 161.148 276.796 162.297 276.821 163.512C276.872 166.12 277.762 170.106 282.973 168.535C298.475 163.858 297.056 147.481 297.056 147.481Z" fill="#F0A711"/>
<path d="M312.756 176.568C316.661 185.43 314.449 204.562 317.713 221.146C317.713 221.146 306.899 228.64 293.96 222.422C292.648 211.568 293.228 199.147 292.16 184.276L312.756 176.568Z" fill="#27427A"/>
<path d="M307.902 224.66C314.816 214.324 311.669 181.658 307.449 177.632L312.361 175.395C320.846 189.274 316.845 204.084 320.109 220.664C320.104 220.669 312.859 224.294 307.902 224.66Z" fill="#213766"/>
<path d="M292.994 184.922C292.735 180.941 293.97 180.788 293.98 176.187C293.986 174.418 294.179 171.845 293.813 168.49C293.467 165.353 291.586 162.953 292.328 159.15C292.455 157.071 294.84 153.766 295.028 152.246C295.323 149.846 295.531 147.629 300.626 145.352L302.837 145.87C303.895 146.119 304.911 146.48 305.867 146.943C316.086 151.895 318.329 152.169 317.505 158.189C317.332 161.29 315.527 158.845 314.937 160.889C313.804 164.814 313.214 169.603 314.556 176.543C314.826 177.946 317.815 182.542 316.798 183.712C311.073 190.28 294.814 189.091 292.994 184.922Z" fill="#FFBE3B"/>
<path d="M293.096 179.274C293.085 179.422 293.08 179.264 293.096 179.274V179.274Z" fill="#FF5CAB"/>
<path d="M311.372 149.577C311.372 149.577 307.432 158.571 301.982 156.115C296.532 153.66 300.655 145.535 300.655 145.535C300.655 145.535 306.339 146.806 311.372 149.577Z" fill="#ED5353"/>
<path d="M304.963 151.214L304.597 151.28C303.362 151.503 302.238 150.736 302.101 149.571L301.328 143.008C301.191 141.843 302.091 140.705 303.321 140.481L303.687 140.415C304.923 140.191 306.046 140.959 306.184 142.123L307.912 148.255C308.05 149.414 306.199 150.985 304.963 151.214Z" fill="#ED5353"/>
<path d="M310.329 149.058C310.329 149.058 306.836 158.342 301.396 155.764C297.177 153.766 300.395 146.094 300.395 146.094L299.246 146.297C299.246 146.297 295.412 155.306 301.579 157.95C307.009 160.274 311.773 149.79 311.773 149.79L310.329 149.058Z" fill="white"/>
<path d="M301.783 146.323C301.783 146.323 304.788 146.318 306.918 143.517C306.918 143.517 304.773 147.767 302.002 148.189L301.783 146.323Z" fill="#BA4141"/>
<path d="M316.803 183.711C317.82 182.542 314.835 177.941 314.561 176.543C313.346 170.289 313.707 165.785 314.622 162.083L311.876 159.241C311.363 162.353 310.773 165.408 309.66 168.062C308.724 168.805 305.531 171.164 303.213 170.625C303.213 170.625 306.828 171.972 308.978 171.967L309.944 187.545C312.695 186.818 315.176 185.582 316.803 183.711Z" fill="#F0A711"/>
<path d="M293.913 169.104L295.825 169.027C294.808 168.687 293.832 167.365 293.532 166.923C293.471 166.831 293.436 166.78 293.436 166.78L293.913 169.104Z" fill="#F0A711"/>
<path d="M307.849 133.083C306.832 131.384 305.245 131.064 303.751 132.005C302.312 131.39 300.548 132.223 299.216 134.399C297.365 137.424 297.472 141.67 298.544 144.359C299.129 145.813 299.826 146.83 303.288 146.291C305.637 145.884 306.969 145.218 308.331 142.986C310.182 139.956 309.328 135.553 307.849 133.083Z" fill="#ED5353"/>
<path d="M299.618 135.585C303.66 142.082 306.11 140.282 306.191 141.284C306.191 141.284 306.847 143.963 306.847 143.968C307.234 145.972 309.272 145.194 311.204 145.875H311.21C311.21 145.875 315.302 136.459 309.893 132.529C304.468 128.589 297.096 132.244 297.808 137.542L299.618 135.585Z" fill="#233B6E"/>
<path d="M308.224 142.164C307.772 142.902 306.811 143.197 306.074 142.825C305.336 142.454 305.102 141.554 305.555 140.822C306.007 140.085 306.968 139.79 307.706 140.161C308.443 140.532 308.677 141.432 308.224 142.164Z" fill="#ED5353"/>
<path d="M300.009 144.842C299.399 144.593 298.921 143.602 298.936 142.631L301.137 143.536C301.127 144.507 300.619 145.092 300.009 144.842Z" fill="white"/>
<path d="M308.186 208.089L262.662 187.239L263.272 152.255L308.796 173.1L308.186 208.089Z" fill="#A3C3E8"/>
<path d="M263.271 152.255L281.417 182.836L308.795 173.1L263.271 152.255Z" fill="#CEE5FF"/>
<path d="M305.514 191.759C306.719 192.654 308.345 192.573 309.123 191.571L311.121 187.194C311.899 186.192 311.264 186.828 310.054 185.928C308.849 185.033 309.439 183.97 307.537 185.577L305.397 188.45C305.117 188.821 304.888 189.233 304.741 189.67C304.476 190.488 304.563 191.058 305.514 191.759Z" fill="#ED5353"/>
<path d="M318.037 176.354L308.443 185.231L309.999 187.529L322.659 181.444C323.777 180.905 324.58 179.883 324.825 178.688L323.386 172.312L318.037 176.354Z" fill="#ED5353"/>
<path d="M311.694 159.958L316.443 174.118C317.18 177.595 319.635 177 321.013 176.736C323.057 176.35 324.801 174.707 324.242 172.262C322.691 165.505 318.766 156.537 316.885 153.715C316.071 152.49 314.617 152.424 312.757 151.752C312.457 151.646 312.919 153.176 312.68 153.466C311.216 155.205 310.825 157.777 311.694 159.958Z" fill="#FFBE3B"/>
<path d="M283.529 182.088L284.582 184.325L308.798 173.1L283.529 182.088Z" fill="#8DB0D9"/>
<path d="M58.9062 176.437L8.2832 165.836V130.816L58.9062 141.422V176.437Z" fill="#9FBFE3"/>
<path d="M8.2832 130.816L28.8893 157.254L58.9062 141.422L8.2832 130.816Z" fill="#C2D8F0"/>
<path d="M28.8906 157.255L32.3326 158.755L58.9075 141.423L28.8906 157.255Z" fill="#8DB0D9"/>
<path opacity="0.21" d="M45.937 307.038C39.4598 303.764 28.5593 303.891 21.594 307.318C20.4043 307.903 19.4129 308.548 18.6096 309.23C14.0746 307.923 7.98881 308.294 3.86046 310.323C-1.03559 312.733 -1.31012 316.546 3.24021 318.849C7.61259 321.061 14.8524 321.061 19.7536 318.92C20.0535 319.103 20.3688 319.281 20.7094 319.454C27.1866 322.728 38.0871 322.601 45.0524 319.174C52.0228 315.743 52.4143 310.313 45.937 307.038Z" fill="#8288D4"/>
<path d="M16.0781 191.567C15.3053 189.635 12.0769 180.9 12.0769 180.9L5.22852 183.585L9.78903 199.742L16.0781 191.567Z" fill="#ED5353"/>
<path d="M15.1171 187.901C15.1171 187.901 19.9471 199.814 21.1927 203.418C22.4434 207.028 13.2817 210.373 13.2817 210.373L5.65039 192.187L15.1171 187.901Z" fill="#9AB9DB"/>
<path d="M5.95388 307.654L9.69076 308.086C12.1515 307.232 13.2853 306.388 14.4394 307.608L14.7648 307.954C15.2935 308.839 15.1512 310.384 14.3326 311.055L8.29262 316.139C7.03683 316.8 4.64728 316.307 4.20496 314.472C4.20496 314.472 3.78297 309.316 4.36257 309.032C5.52684 308.467 4.94722 308.183 5.95388 307.654Z" fill="#27427A"/>
<path d="M14.7656 257.85L28.8386 260.305V245.607L14.7656 243.151V257.85Z" fill="#27427A"/>
<path d="M33.3068 310.359L38.3147 310.781C41.8889 309.993 43.6531 309.205 44.9292 310.354L45.2902 310.679C45.7986 311.508 45.2241 312.952 43.9378 313.582L34.4304 318.315C32.5493 318.931 30.475 318.432 30.3224 316.714C30.3224 316.714 29.936 311.909 30.8003 311.645C32.529 311.116 31.8019 310.847 33.3068 310.359Z" fill="#27427A"/>
<path d="M36.0658 312.499C36.2081 314.512 31.307 314.858 31.1646 312.844L30.707 306.296L35.6082 305.95L36.0658 312.499Z" fill="#A8ACBA"/>
<path d="M36.6997 306.556C35.1795 309.011 30.9291 309.322 29.8869 307.827C28.5955 298.614 24.6603 289.015 27.1821 275.995L19.8711 237.731L37.4064 239.76L36.9285 280.83L36.6997 306.556Z" fill="#27427A"/>
<path d="M9.14476 310.547C8.82446 312.54 3.97418 311.762 4.29448 309.769L5.33673 303.287L10.187 304.065L9.14476 310.547Z" fill="#A8ACBA"/>
<path d="M11.1063 304.904C9.06752 306.952 4.85783 306.286 4.18164 304.593C5.01544 295.33 3.3682 285.085 8.78284 272.98L10.3538 234.056L26.9689 240.014L17.1717 279.9L11.1063 304.904Z" fill="#27427A"/>
<path d="M28.3367 194.766C28.6519 198.731 26.3692 200.739 23.2373 199.25C20.1055 197.76 18.6971 192.961 18.3819 188.99C18.0667 185.024 20.6444 184.643 22.0934 184.882C25.5099 185.451 28.0164 190.795 28.3367 194.766Z" fill="#ED5353"/>
<path d="M33.3559 193.081C33.244 197.057 29.619 199.421 26.66 197.601C23.7061 195.781 21.3979 191.083 21.5098 187.108C21.6216 183.132 24.1078 181.378 27.0617 183.198C30.0156 185.013 33.4626 189.101 33.3559 193.081Z" fill="#ED5353"/>
<path d="M23.8337 205.33L23.427 205.223C22.0542 204.867 21.2204 203.454 21.5763 202.081L23.5795 194.338C23.9354 192.965 25.3488 192.132 26.7215 192.487L27.1282 192.594C28.5009 192.95 29.3347 194.363 28.9789 195.736L28.145 203.459C27.7942 204.832 25.2064 205.686 23.8337 205.33Z" fill="#ED5353"/>
<path d="M19.7742 196.591C19.7742 196.591 20.5165 199.27 25.3973 198.721C29.0833 198.309 26.4396 191.984 29.8155 190.418C34.376 188.298 32.5761 183.834 30.5577 182.375C28.5393 180.916 25.9769 181.76 22.8196 182.817C19.4844 183.936 14.9341 186.519 19.7742 196.591Z" fill="#27427A"/>
<path d="M29.1759 193.8C30.1446 193.8 30.93 193.015 30.93 192.046C30.93 191.077 30.1446 190.292 29.1759 190.292C28.2072 190.292 27.4219 191.077 27.4219 192.046C27.4219 193.015 28.2072 193.8 29.1759 193.8Z" fill="#ED5353"/>
<path d="M9.09728 242.423C8.56853 231.614 10.348 222.595 9.87005 214.15C10.0531 198.018 11.6953 201.409 16.9676 200.321L20.5061 199.925C21.6094 200.133 22.6364 200.642 23.7295 200.911C28.3052 202.03 31.2388 202.279 34.5232 204.058C37.4516 205.644 37.6194 209.88 37.6144 213.428C38.4075 223.825 38.6159 239.485 38.7634 244.615C37.0907 251.971 11.8783 247.396 9.09728 242.423Z" fill="#9AB9DB"/>
<path d="M29.832 198.086L29.1914 197.263C29.1914 197.263 30.0913 197.797 31.4081 197.268C31.4132 197.268 30.7268 197.934 29.832 198.086Z" fill="#BA4141"/>
<path d="M38.8496 214.645L36.1652 217.543C33.013 230.258 34.4722 243.151 29.3066 248.576C32.469 248.566 35.367 248.149 37.5074 246.573C37.6243 246.588 38.6106 245.709 38.753 244.123L38.8496 214.645Z" fill="#82A1C7"/>
<path d="M19.9024 199.712C19.9024 199.712 19.0483 202.05 21.8039 202.92C24.5595 203.789 29.1098 202.259 29.1098 202.259C29.1098 202.259 26.0746 199.086 19.9024 199.712Z" fill="white"/>
<path d="M29.8097 193.246C29.4894 193.286 29.1945 193.063 29.1538 192.742L28.1167 189.026C28.076 188.705 28.9047 188.894 29.2199 188.853C29.5402 188.812 30.4503 188.522 30.491 188.838L30.308 192.585C30.3537 192.905 30.13 193.205 29.8097 193.246Z" fill="#27427A"/>
<path d="M8.95358 163.492C8.95358 163.492 4.7439 179.08 5.21673 183.259C5.68956 187.439 12.5227 182.405 12.5227 182.405L13.4124 165.572L8.95358 163.492Z" fill="#ED5353"/>
<path d="M8.41516 159.689C9.80314 158.936 11.425 159.236 12.0148 160.345L13.179 165.032C13.7688 166.146 13.2502 165.424 11.8571 166.171C10.4692 166.924 10.8555 168.073 9.25912 166.202L7.66271 163.019C7.45426 162.607 7.30173 162.165 7.24072 161.702C7.12887 160.843 7.32206 160.279 8.41516 159.689Z" fill="#ED5353"/>
<path d="M59.5865 172.223C59.5865 172.223 58.2544 186.774 56.2767 190.485C54.2989 194.196 48.2539 188.924 48.2539 188.924L55.2345 172.665L59.5865 172.223Z" fill="#ED5353"/>
<path d="M59.587 166.991C58.1481 166.345 56.5517 166.757 56.0433 167.911L55.2298 172.67C54.7214 173.824 55.1892 173.061 56.6331 173.712C58.0719 174.358 57.7719 175.537 59.226 173.555L60.5835 170.265C60.7614 169.838 60.8835 169.386 60.9089 168.918C60.9597 168.043 60.7207 167.499 59.587 166.991Z" fill="#ED5353"/>
<path d="M48.9981 203.957C49.9946 202.132 55.4601 191.226 55.4601 191.226L49.0236 187.662L35.1387 205.95L48.9981 203.957Z" fill="#ED5353"/>
<path d="M38.662 218.447L50.9149 202.325C54.1993 200.383 43.37 192.371 39.9839 195.06C39.7704 195.228 29.1953 206.876 29.1953 206.876C29.1953 206.876 32.1441 218.966 38.662 218.447Z" fill="#9AB9DB"/>
<path d="M139.946 321.298L201.287 285.882L163.359 263.984L125.156 323.449L139.946 321.298Z" fill="#C2D8F0"/>
<path d="M125.154 321.298L186.5 285.882L148.572 263.984L87.2266 299.401L125.154 321.298Z" fill="#C44545"/>
<path d="M87.2266 299.402V301.197L125.154 323.45V321.3L87.2266 299.402Z" fill="#B03F3F"/>
<path d="M186.502 288.079L125.156 323.45V321.299L186.502 285.883V288.079Z" fill="#A13939"/>
<path d="M125.154 316.453L186.5 281.037L148.572 259.14L87.2266 294.556L125.154 316.453Z" fill="#C44545"/>
<path d="M87.2266 294.557V296.351L125.154 318.605V316.454L87.2266 294.557Z" fill="#B03F3F"/>
<path d="M186.502 283.234L125.156 318.605V316.454L186.502 281.038V283.234Z" fill="#A13939"/>
<path d="M125.154 311.34L186.5 275.924L148.572 254.026L87.2266 289.443L125.154 311.34Z" fill="#ED5353"/>
<path d="M87.2266 289.443V291.243L125.154 313.491V311.341L87.2266 289.443Z" fill="#B03F3F"/>
<path d="M186.502 278.125L125.156 313.491V311.34L186.502 275.924V278.125Z" fill="#A13939"/>
<path d="M125.156 311.34L133.103 278.842L144.512 272.263L186.502 275.923L125.156 311.34Z" fill="#D94C4C"/>
<path d="M87.2266 289.443L147.637 284.125L148.572 254.026L87.2266 289.443Z" fill="#F26D6D"/>
<path d="M87.6641 289.442L140.977 289.92L131.459 285.548L87.6641 289.442Z" fill="#D94C4C"/>
<path d="M260.987 278.897L257.129 270.798L252.105 271.266L254.851 279.771L260.987 278.897Z" fill="#ED5353"/>
<path d="M259.432 261.081C259.432 261.081 261.943 275.231 252.324 275.785C252.324 275.785 248.526 277.168 248.465 267.223C248.404 257.278 255.288 258.656 259.432 261.081Z" fill="#ED5353"/>
<path d="M251.252 275.749C251.252 275.749 253.682 274.056 254.867 271.244L259.036 273.7L260.8 278.494L254.557 279.216L253.636 275.81C253.636 275.81 251.903 276.105 251.252 275.749Z" fill="#ED5353"/>
<path d="M258.359 274.352L257.678 274.296C257.078 274.443 256.015 273.04 255.787 272.456C255.385 271.423 254.068 270.895 253.667 269.329C253.509 268.708 252.233 268.983 251.938 267.864C251.389 265.805 248.806 263.807 248.806 263.807C248.806 263.807 247.566 263.38 247.83 262.338C248.216 260.818 249.137 261.123 250.108 260.269C252.279 258.362 260.179 257.549 262.483 262.663C265.096 268.495 258.359 274.352 258.359 274.352Z" fill="#233B6E"/>
<path d="M252.288 270.199C252.339 271.18 253.015 271.958 253.793 271.943C254.571 271.927 255.166 271.119 255.11 270.138C255.059 269.156 254.383 268.379 253.605 268.394C252.827 268.409 252.237 269.217 252.288 270.199Z" fill="#ED5353"/>
<path opacity="0.4" d="M255.343 346.05C268.405 345.444 278.737 339.415 278.42 332.582C278.103 325.75 267.258 320.702 254.196 321.307C241.134 321.913 230.802 327.942 231.118 334.775C231.435 341.607 242.281 346.655 255.343 346.05Z" fill="#A8C4E5"/>
<path d="M236.945 321.651C236.945 321.651 237.027 330.68 259.621 337.376L260.998 335.261L241.857 316.216L236.945 321.651Z" fill="#ED5353"/>
<path d="M259.365 338.152L263.402 340.008C265.812 342.174 266.818 343.547 268.303 343.216L268.725 343.125C270.205 342.799 270.454 341.472 269.269 340.181L264.648 333.322C263.468 332.031 261.434 331.675 259.96 332.326C259.96 332.326 259.07 332.733 258.735 335.514C258.536 337.095 258.419 337.12 259.365 338.152Z" fill="#213766"/>
<path d="M231.561 322.794C231.561 322.794 226.558 332.073 254.826 342.297L256.834 338.326L237.382 323.043L231.561 322.794Z" fill="#ED5353"/>
<path d="M268.384 310.526L244.366 311.899C241.651 312.052 239.038 313.007 236.888 314.67C232.337 318.178 226.567 324.528 237.066 328.779L258.231 335.927C262.771 337.508 266.93 337.442 270.011 333.385C272.731 329.811 272.807 321.584 270.982 317.944L268.384 310.526Z" fill="#213766"/>
<path d="M236.908 314.72C234.945 316.235 232.754 318.279 231.742 320.455L244.529 324.772C247.991 325.412 251.123 324.716 253.574 321.492C255.317 319.199 255.968 314.99 255.734 311.304L244.387 311.949C241.672 312.107 239.058 313.063 236.908 314.72Z" fill="#27427A"/>
<path d="M254.733 342.628L258.709 344.458C261.083 346.588 262.08 347.941 263.539 347.621L263.951 347.529C265.41 347.209 265.654 345.902 264.49 344.631L262.578 342.14C262.207 341.652 261.861 341.148 261.551 340.62L259.934 337.874C258.77 336.603 256.767 336.252 255.313 336.893C255.313 336.893 254.438 337.29 254.103 340.03C253.92 341.586 253.803 341.611 254.733 342.628Z" fill="#213766"/>
<path d="M268.852 308.426C268.852 308.426 268.786 302.488 268.989 298.822C269.284 293.468 269.533 283.788 269.533 283.748C269.533 280.921 270.718 279.212 265.984 276.742L260.829 275.476L254.153 278.846C254.153 278.846 244.514 285.959 245.134 292.513C245.424 295.573 248.566 300.271 249.735 304.471L248.495 312.707C249.049 319.042 266.615 315.813 269.309 310.612C269.869 309.524 269.228 308.533 268.852 308.426Z" fill="#176BC7"/>
<path d="M250.387 290.444C253.976 296.967 254.551 314.538 254.866 316.246C251.328 316.251 248.486 315.24 248.267 312.748L249.507 304.512C248.338 300.307 245.196 295.615 244.906 292.554C244.693 290.332 245.669 288.044 247.042 285.99C247.413 285.741 247.636 285.594 247.636 285.594C247.636 285.594 248.608 287.216 250.387 290.444Z" fill="#13549C"/>
<path d="M235.368 298.293C229.852 293.366 224.366 290.85 221.453 286.803L219.592 289.375C219.592 289.375 231.926 306.977 235.109 305.085C239.862 302.254 235.368 298.293 235.368 298.293Z" fill="#ED5353"/>
<path d="M251.221 287.916C251.221 287.916 239.578 303.662 236.136 303.982C232.694 304.303 233.513 298.4 233.513 298.4L246.813 285.1L251.221 287.916Z" fill="#ED5353"/>
<path d="M238.785 292.324L237.396 293.926C237.396 293.926 238.495 297.678 242.806 298.822L244.25 297.266L238.785 292.324Z" fill="white"/>
<path d="M252.833 280.147C252.833 280.147 247.922 281.53 244.765 285.852C243.041 288.211 238.719 292.502 238.719 292.502C238.552 295.339 240.397 296.808 244.932 298.608L259.453 282.074L252.833 280.147Z" fill="#176BC7"/>
<path d="M252.547 280.148L254.006 277.393L264.637 275.069C264.637 275.069 263.651 279.848 258.897 279.137C256.141 278.72 252.547 280.148 252.547 280.148Z" fill="white"/>
<path d="M219.914 283.011C219.863 283.443 220.391 284.444 220.519 285.08C220.849 286.778 220.844 288.43 220.844 288.43C220.844 288.43 222.232 289.615 223.02 288.268C223.803 286.92 222.049 284.663 222.049 284.663L220.61 281.831C220.61 281.826 220.092 281.424 219.914 283.011Z" fill="#ED5353"/>
<path d="M215.87 284.963C215.784 284.404 215.687 283.788 215.687 283.788C215.565 282.807 215.758 281.933 216.373 281.165L218.371 283.433C219.597 284.195 220.588 284.902 220.751 285.634L221.452 285.944C221.549 285.99 221.62 286.081 221.635 286.193L222.037 289.437C222.073 289.706 221.788 289.895 221.564 289.752C221.325 289.6 220.995 289.366 220.614 289.081L220.38 290.179C220.38 290.179 217.604 287.571 216.587 286.356C216.577 286.346 216.567 286.331 216.551 286.315C216.201 285.939 215.951 285.471 215.87 284.963Z" fill="#ED5353"/>
<path d="M264.57 344.59L262.658 342.098C262.287 341.61 261.942 341.107 261.631 340.578L260.015 337.833C258.962 336.684 257.234 336.297 255.84 336.699C255.912 336.902 255.713 336.511 255.84 336.699C255.535 337.395 257.315 340.039 259.603 342.703L263.06 347.493C263.091 347.538 263.126 347.579 263.162 347.625C263.309 347.63 263.462 347.615 263.624 347.584L264.036 347.493C265.49 347.167 265.734 345.861 264.57 344.59Z" fill="#172747"/>
<path d="M156.106 139.728L108.803 158.123L74.2305 136.642L131.387 114.414L156.106 129.773V139.728Z" fill="#9FBFE3"/>
<path d="M74.2305 136.642L120.095 136.271L131.387 114.414L74.2305 136.642Z" fill="#C2D8F0"/>
<path d="M156.105 116.936C156.105 112.635 155.663 108.4 154.814 104.276L105.162 115.624L131.503 140.043L156.105 134.42V116.936Z" fill="#E0EFFF"/>
<path d="M155.903 114.415L150.02 120.597L105.168 115.63L154.82 104.282C154.815 104.282 156.599 110.398 155.903 114.415Z" fill="#FAFCFF"/>
<path d="M74.2305 127.668V86.7502C74.2305 62.27 100.734 46.9666 121.935 59.2093L125.281 61.1413C144.728 72.3671 156.706 93.1207 156.706 115.572V173.923" stroke="#C2D8F0" stroke-width="2" stroke-miterlimit="10" stroke-linecap="round" stroke-linejoin="round"/>
<path d="M258.414 262.312C258.414 262.312 263.879 257.05 267.179 264.839C270.478 272.628 267.031 280.879 272.507 285.831C272.507 285.831 261.978 284.621 261.652 277.804C261.327 270.986 262.674 265.444 258.932 264.783C255.19 264.122 258.414 262.312 258.414 262.312Z" fill="#233B6E"/>
<path d="M229.949 92.5828L279.144 84.5244L248.15 102.339L229.949 92.5828Z" fill="white"/>
<path d="M279.142 84.5244L253.98 105.217L269.441 115.024L279.142 84.5244Z" fill="white"/>
<path d="M248.15 102.339L250.403 114.043L253.982 105.217L279.144 84.5244L248.15 102.339Z" fill="#BED5F0"/>
<path d="M250.4 114.043L259.333 108.613L253.98 105.217L250.4 114.043Z" fill="#A3C3E8"/>
<path d="M181.808 183.055C181.722 183.071 181.63 183.065 181.544 183.035C179.769 182.394 178.717 181.876 178.671 181.855C178.422 181.728 178.315 181.423 178.442 181.174C178.564 180.925 178.87 180.818 179.124 180.945C179.134 180.95 180.176 181.464 181.89 182.079C182.154 182.176 182.291 182.466 182.195 182.73C182.128 182.903 181.981 183.02 181.808 183.055Z" fill="white"/>
<path d="M199.608 184.728C199.338 184.779 199.074 184.606 199.018 184.337C198.957 184.062 199.13 183.793 199.404 183.732C201.367 183.304 203.223 182.623 204.921 181.713C205.17 181.581 205.475 181.672 205.607 181.922C205.739 182.171 205.648 182.476 205.399 182.608C203.619 183.564 201.672 184.276 199.618 184.728C199.613 184.728 199.608 184.728 199.608 184.728ZM193.614 185.308C193.578 185.313 193.547 185.318 193.512 185.318C191.555 185.292 189.506 185.069 187.431 184.662C187.157 184.606 186.974 184.342 187.03 184.067C187.086 183.793 187.35 183.615 187.624 183.665C189.643 184.062 191.626 184.276 193.527 184.301C193.807 184.306 194.031 184.535 194.031 184.814C194.02 185.064 193.847 185.262 193.614 185.308ZM210.091 179.09C209.929 179.12 209.756 179.074 209.634 178.947C209.435 178.744 209.441 178.424 209.644 178.23C210.991 176.914 212.227 175.358 213.32 173.619C213.467 173.38 213.782 173.309 214.021 173.456C214.26 173.604 214.332 173.919 214.184 174.158C213.05 175.968 211.764 177.58 210.356 178.957C210.279 179.029 210.188 179.074 210.091 179.09ZM216.553 169.008C216.462 169.023 216.36 169.018 216.269 168.977C216.009 168.87 215.882 168.576 215.989 168.316L216.106 168.027C216.792 166.278 217.443 164.483 218.038 162.683C218.124 162.414 218.414 162.271 218.679 162.358C218.943 162.444 219.09 162.734 219.004 162.998C218.404 164.818 217.748 166.633 217.052 168.398L216.935 168.698C216.863 168.865 216.716 168.977 216.553 169.008ZM220.341 157.558C220.27 157.573 220.194 157.568 220.112 157.548C219.843 157.477 219.68 157.197 219.751 156.923C220.244 155.103 220.712 153.191 221.18 151.086C221.241 150.812 221.51 150.639 221.785 150.7C222.059 150.761 222.232 151.035 222.171 151.305C221.699 153.425 221.226 155.347 220.733 157.182C220.682 157.385 220.524 157.523 220.341 157.558ZM223.015 145.799C222.954 145.809 222.888 145.809 222.817 145.799C222.543 145.743 222.365 145.473 222.42 145.199L222.542 144.589C222.919 142.738 223.27 140.989 223.651 139.286C223.712 139.011 223.986 138.838 224.256 138.899C224.53 138.96 224.703 139.23 224.642 139.504C224.266 141.197 223.91 142.941 223.539 144.792L223.417 145.402C223.376 145.61 223.214 145.763 223.015 145.799ZM225.751 134.054C225.674 134.069 225.588 134.064 225.507 134.039C225.237 133.958 225.09 133.673 225.171 133.403C225.827 131.273 226.544 129.412 227.372 127.714C227.494 127.46 227.8 127.358 228.054 127.48C228.308 127.602 228.41 127.907 228.288 128.162C227.484 129.814 226.783 131.624 226.142 133.703C226.086 133.891 225.929 134.024 225.751 134.054ZM231.104 123.337C230.967 123.362 230.814 123.332 230.698 123.235C230.479 123.062 230.438 122.742 230.611 122.523C231.852 120.947 233.245 119.513 234.877 118.141C235.09 117.958 235.411 117.988 235.594 118.202C235.777 118.415 235.746 118.736 235.533 118.919C233.956 120.246 232.609 121.628 231.414 123.149C231.333 123.255 231.221 123.316 231.104 123.337Z" fill="white"/>
<path d="M240.288 115.512C240.084 115.552 239.871 115.461 239.759 115.273C239.617 115.034 239.693 114.719 239.932 114.576C240.781 114.068 241.686 113.565 242.621 113.076C242.871 112.949 243.176 113.046 243.308 113.295C243.435 113.544 243.338 113.849 243.089 113.981C242.169 114.459 241.284 114.952 240.451 115.451C240.4 115.481 240.344 115.502 240.288 115.512Z" fill="white"/>
<path d="M78.8065 80.3401C79.3353 70.6497 72.436 59.8153 63.3913 56.1344C59.7205 54.6396 56.2582 54.5532 53.406 55.6311C52.5315 55.9615 51.7181 56.3988 50.9707 56.9428L43.1055 61.1677L46.1051 66.4146C46.0899 66.6128 46.0695 66.8111 46.0594 67.0145C45.5611 76.1202 51.6316 86.2428 59.8731 90.483L63.2184 96.3349L71.9784 91.51C75.8627 89.8017 78.5065 85.8513 78.8065 80.3401Z" fill="#F0A711"/>
<path d="M64.5327 95.593C71.2438 91.2545 71.751 80.1064 65.6655 70.6929C59.58 61.2795 49.2064 57.1654 42.4953 61.5039C35.7842 65.8423 35.277 76.9905 41.3625 86.4039C47.4479 95.8174 57.8216 99.9315 64.5327 95.593Z" fill="#FFBE3B"/>
<path d="M47.1672 81.8651L51.3209 83.4412V70.075L48.0213 68.8243V67.3193C49.6686 67.66 50.8634 67.66 51.8599 67.4414L53.6495 68.1226V84.331L57.4016 85.7545V87.6865L47.1621 83.8022V81.8651H47.1672Z" fill="white"/>
<path d="M28.5137 57.3691L34.6502 59.6011" stroke="#27427A" stroke-width="2" stroke-miterlimit="10" stroke-linecap="round" stroke-linejoin="round"/>
<path d="M47.2598 45.7529L47.4682 51.3862" stroke="#27427A" stroke-width="2" stroke-miterlimit="10" stroke-linecap="round" stroke-linejoin="round"/>
<path d="M36.0156 47.6846L39.5339 53.2365" stroke="#27427A" stroke-width="2" stroke-miterlimit="10" stroke-linecap="round" stroke-linejoin="round"/>
<defs>
<linearGradient id="paint0_linear_417_51256" x1="92.5786" y1="87.6845" x2="254.738" y2="87.6845" gradientUnits="userSpaceOnUse">
<stop offset="0.0754" stop-color="#2E90FE"/>
<stop offset="0.6392" stop-color="#2077E7"/>
<stop offset="1" stop-color="#1A6DDE"/>
</linearGradient>
</defs>
</svg>
