<svg height="426.4" viewBox="0 0 600 426.4" width="600" xmlns="http://www.w3.org/2000/svg" xmlns:xlink="http://www.w3.org/1999/xlink"><linearGradient id="a"><stop offset="0" stop-color="#808080" stop-opacity=".25"/><stop offset=".54" stop-color="#808080" stop-opacity=".12"/><stop offset="1" stop-color="#808080" stop-opacity=".1"/></linearGradient><linearGradient id="b" gradientTransform="matrix(1 0 0 -1 -11.09 393.88)" gradientUnits="userSpaceOnUse" x1="123.844" x2="123.844" xlink:href="#a" y1="261.06" y2="283.811"/><linearGradient id="c" gradientTransform="matrix(1 0 0 -1 0 425.41)" gradientUnits="userSpaceOnUse" x1="207.916" x2="207.916" xlink:href="#a" y1="299.523" y2="322.274"/><linearGradient id="d" gradientTransform="matrix(1 0 0 -1 0 425.41)" gradientUnits="userSpaceOnUse" x1="314.052" x2="314.052" xlink:href="#a" y1="255.352" y2="278.103"/><linearGradient id="e" gradientTransform="matrix(1 0 0 -1 0 425.41)" gradientUnits="userSpaceOnUse" x1="422.354" x2="422.354" xlink:href="#a" y1="240.284" y2="263.034"/><linearGradient id="f" gradientTransform="matrix(1 0 0 -1 0 425.41)" gradientUnits="userSpaceOnUse" x1="451.37" x2="451.37" xlink:href="#a" y1="225.556" y2="248.307"/><linearGradient id="g" gradientTransform="matrix(1 0 0 -1 0 425.41)" gradientUnits="userSpaceOnUse" x1="487.763" x2="487.763" xlink:href="#a" y1="264.909" y2="287.659"/><linearGradient id="h" gradientTransform="matrix(1 0 0 -1 0 425.41)" gradientUnits="userSpaceOnUse" x1="480.397" x2="480.397" xlink:href="#a" y1="232.989" y2="255.739"/><linearGradient id="i" gradientTransform="matrix(1 0 0 -1 0 425.41)" gradientUnits="userSpaceOnUse" x1="239.973" x2="239.973" xlink:href="#a" y1="299.523" y2="322.274"/><linearGradient id="j" gradientTransform="matrix(1 0 0 -1 0 425.41)" gradientUnits="userSpaceOnUse" x1="130.174" x2="130.174" xlink:href="#a" y1="244.369" y2="267.12"/><linearGradient id="k" gradientTransform="matrix(1 0 0 -1 0 425.41)" gradientUnits="userSpaceOnUse" x1="224.874" x2="224.874" xlink:href="#a" y1="266.727" y2="289.478"/><linearGradient id="l" gradientTransform="matrix(1 0 0 -1 0 425.41)" gradientUnits="userSpaceOnUse" x1="347.358" x2="347.358" xlink:href="#a" y1="280.324" y2="303.074"/><linearGradient id="m" gradientTransform="matrix(1 0 0 -1 0 425.41)" gradientUnits="userSpaceOnUse" x1="471.345" x2="471.345" xlink:href="#a" y1="296.278" y2="319.029"/><linearGradient id="n" gradientTransform="matrix(1 0 0 -1 0 425.41)" gradientUnits="userSpaceOnUse" x1="378.361" x2="378.361" xlink:href="#a" y1="299.523" y2="322.274"/><linearGradient id="o" gradientTransform="matrix(1 0 0 -1 0 425.41)" gradientUnits="userSpaceOnUse" x1="377.026" x2="377.026" xlink:href="#a" y1="255.352" y2="278.103"/><linearGradient id="p" gradientTransform="matrix(1 0 0 -1 0 425.41)" gradientUnits="userSpaceOnUse" x1="271.526" x2="271.526" xlink:href="#a" y1="288.535" y2="311.286"/><linearGradient id="q" gradientTransform="matrix(1 0 0 -1 0 425.41)" gradientUnits="userSpaceOnUse" x1="146.668" x2="146.668" xlink:href="#a" y1="281.215" y2="303.966"/><linearGradient id="r" gradientTransform="matrix(1 0 0 -1 0 425.41)" gradientUnits="userSpaceOnUse" x1="158.421" x2="158.421" xlink:href="#a" y1="255.352" y2="278.103"/><linearGradient id="s" gradientTransform="matrix(1 0 0 -1 0 425.41)" gradientUnits="userSpaceOnUse" x1="255.892" x2="255.892" xlink:href="#a" y1="251.659" y2="274.409"/><linearGradient id="t" gradientTransform="matrix(1 0 0 -1 0 425.41)" gradientUnits="userSpaceOnUse" x1="427.871" x2="427.871" xlink:href="#a" y1="296.278" y2="319.029"/><linearGradient id="u" gradientTransform="matrix(1 0 0 -1 0 425.41)" gradientUnits="userSpaceOnUse" x1="448.665" x2="448.665" xlink:href="#a" y1="264.909" y2="287.659"/><linearGradient id="v" gradientTransform="matrix(1 0 0 -1 0 425.41)" gradientUnits="userSpaceOnUse" x1="316.105" x2="316.105" xlink:href="#a" y1="299.523" y2="322.274"/><linearGradient id="w" gradientTransform="matrix(1 0 0 -1 0 425.41)" gradientUnits="userSpaceOnUse" x1="344.699" x2="344.699" xlink:href="#a" y1="232.989" y2="255.739"/><linearGradient id="x" gradientTransform="matrix(-1 0 0 -1 1377.25 393.88)" gradientUnits="userSpaceOnUse" x1="970.329" x2="970.329" xlink:href="#a" y1="-23.015" y2="284.636"/><linearGradient id="y" gradientTransform="matrix(-1 0 0 -1 1203.12 393.88)" gradientUnits="userSpaceOnUse" x1="946.416" x2="946.416" xlink:href="#a" y1="-12.736" y2="293.646"/><path d="m600 273.8c0 11.5-1.2 23-3.6 34.3-.8 3.8-1.7 7.5-2.8 11.1-1.3 4.5-2.8 8.9-4.5 13.1-.9 2.2-1.8 4.3-2.7 6.4 0 11.8-2.1 23.4-6.2 34.4-7.3 19.4-20.6 35.1-37.3 44.4-10.4 5.8-22.1 8.8-34 8.8h-395c-21.1 0-40.7-7.5-56.7-20.3-4.7-3.8-9-7.9-13-12.4-5.5-6.3-10.3-13.2-14.3-20.5-9.2-17-14.6-37-14.6-58.4-9.7-19.5-15.3-42.9-15.3-68.2 0-31.8 8.9-60.8 23.6-82.7 3-4.5 6.4-8.9 10-12.9 3.5-3.9 7.4-7.6 11.5-10.9 3.2-2.6 6.6-5 10.2-7.1 1.5-.9 2.9-1.7 4.5-2.4 1.3-.7 2.7-1.3 4-1.9 1.6-.7 3.3-1.4 4.9-2 1.7-.6 3.3-1.1 4.9-1.6 2.4-.7 4.8-1.2 7.3-1.6 2-.4 4.1-.6 6.1-.8 1.6-.1 3.3-.2 4.9-.2h.9c1.8 0 3.6.1 5.4.2.2-.4.4-.9.6-1.3.7-1.6 1.4-3.1 2.2-4.7.1-.3.3-.5.4-.8.6-1.3 1.2-2.5 1.9-3.7.3-.6.6-1.1.9-1.7.1-.1.1-.3.2-.4.3-.6.6-1.2.9-1.7 1.6-2.9 3.2-5.7 4.9-8.6.1-.2.3-.5.4-.7.3-.4.5-.9.8-1.3.7-1.1 1.4-2.3 2.2-3.4.5-.8 1-1.6 1.6-2.4 1.3-2 2.7-3.9 4.1-5.9 1.4-1.9 2.8-3.9 4.3-5.8.2-.3.4-.5.6-.8l2.2-2.7.3-.4.8-1 3.6-4.2c6.1-7 12.6-13.5 19.5-19.6.3-.2.5-.5.8-.7l3.9-3.3c7.2-5.9 14.7-11.4 22.6-16.3.5-.3 1.1-.7 1.6-1 7-4.3 14.2-8.1 21.6-11.5 4.1-1.9 8.2-3.6 12.4-5.2 2.8-1 5.5-2 8.3-3 4.3-1.4 8.7-2.7 13.2-3.9 13-3.4 26.4-5.5 39.9-6.3 4.1-.2 8.2-.3 12.4-.3 20.2 0 40.3 2.9 59.6 8.7.4.7 1.1 1.1 1.8 1.1h1.7c.7.2 1.5.5 2.2.7 4.2 1.4 8.2 2.9 12.3 4.5l1 .4c19.3 7.9 37.2 18.7 53.3 32 1.2 1 2.4 2 3.5 3 1.4-1 2.8-2 4.3-3 5.5-3.7 11.5-6.6 17.8-8.8 12.8-4.4 26.7-5 39.9-1.8 16.9 4.2 32.3 14.5 44.7 29.1 5.1 6.1 9.6 12.7 13.4 19.6.3.5.6 1 .8 1.5 3.3 6.3 6.2 12.9 8.5 19.6.1.2.2.5.2.7 2.2 6.4 3.9 13 5.2 19.6.1.3.1.7.2 1 1.2 6.5 2.1 13 2.5 19.6v.7c.2 3.4.3 6.9.3 10.4 0 3.1-.1 6.2-.3 9.3 0 .3 0 .7-.1 1 0 .9-.1 1.8-.2 2.7 3.9 3.7 7.6 7.6 10.9 11.9 1.5 1.9 2.9 3.8 4.3 5.8 4.3 6.2 8 12.8 11.1 19.6 8.8 19.2 13.8 41.3 13.8 64.9z" fill="#fff200" opacity=".1"/><path d="m546.5 406.7c0 7.6-23.4 14.5-61.8 19.7h-360.7c-38.4-5.2-61.8-12.1-61.8-19.7 0-5.8 13.6-11.1 37-15.7l.7-.1c6.6-1.3 14-2.5 22.1-3.6l.6-.1c6.4-.9 13.2-1.7 20.5-2.5l.7-.1c2.8-.3 5.6-.6 8.5-.9l1.1-.1c21.2-2 45.2-3.7 71.3-4.8 3.7-.2 7.3-.3 11.1-.4 4.2-.2 8.4-.3 12.6-.4 3.2-.1 6.5-.2 9.8-.3h.1c14.9-.4 30.2-.5 45.9-.5 38.8 0 75.6 1.1 108.1 3.1h.1c5 .3 9.9.6 14.7 1l4.1.3c5.4.4 10.7.8 15.8 1.3 60.4 5.3 99.5 14 99.5 23.8z" fill="#fff200" opacity=".1"/><path d="m161.4 53.7v15.5c0 1.2-.9 2.1-2.1 2.1h-28.3c6.1-7 12.6-13.5 19.5-19.6h8.8c1.2-.1 2.1.8 2.1 2z" fill="none" opacity=".03" stroke="#fff" stroke-miterlimit="10" stroke-width=".509"/><path d="m507.5 53.6v232.1c0 3.4-2.7 6.1-6.1 6.1h-414.4c-3.4 0-6.1-2.7-6.1-6.1v-162.2c2-.4 4.1-.6 6.1-.8 1.6-.1 3.3-.2 4.9-.2h.9c1.8 0 3.6.1 5.4.2.2-.4.4-.9.6-1.3.7-1.6 1.4-3.1 2.2-4.7.1-.3.3-.5.4-.8.6-1.3 1.2-2.5 1.9-3.7.3-.6.6-1.1.9-1.7.1-.1.1-.3.2-.4.3-.6.6-1.2.9-1.7 1.6-2.9 3.2-5.7 4.9-8.6.1-.2.3-.5.4-.7.3-.4.5-.9.8-1.3.7-1.1 1.4-2.3 2.2-3.4.5-.8 1-1.6 1.6-2.4 1.3-2 2.7-3.9 4.1-5.9s2.8-3.9 4.3-5.8c.2-.3.4-.5.6-.8l2.2-2.7.3-.4.8-1 3.6-4.2c6.1-7 12.6-13.5 19.5-19.6.3-.2.5-.5.8-.7l3.9-3.3h264c1.2 1 2.4 2 3.5 3 1.4-1 2.8-2 4.3-3h74.4c3.3 0 6 2.7 6 6z" fill="#fff"/><path d="m483.1 92v5.8h-371.6c.7-1.1 1.4-2.3 2.2-3.4.5-.8 1-1.6 1.6-2.4z" fill="#3f3d56"/><path d="m403.4 63.8v220h-5.8v-220zm-106.3 0v220h-5.8v-220zm-106.3 0v220h-5.8v-220z" fill="#3f3d56"/><path d="m124.5 110.1v22.8h-23.5v-16.1c.1-.3.3-.5.4-.8.6-1.3 1.2-2.5 1.9-3.7.3-.6.6-1.1.9-1.7.1-.1.1-.3.2-.4z" fill="url(#b)"/><path d="m124.1 110.5v22h-22.7v-16.6c.6-1.3 1.2-2.5 1.9-3.7.3-.6.6-1.1.9-1.7z" fill="#7cfcff"/><path d="m196.2 103.1h23.5v22.8h-23.5z" fill="url(#c)"/><path d="m196.6 103.5h22.7v22h-22.7z" fill="#7cfcff"/><path d="m302.3 147.3h23.5v22.8h-23.5z" fill="url(#d)"/><path d="m302.7 147.7h22.7v22h-22.7z" fill="#7cfcff"/><path d="m410.6 162.4h23.5v22.8h-23.5z" fill="url(#e)"/><path d="m411 162.8h22.7v22h-22.7z" fill="#7cfcff"/><path d="m439.6 177.1h23.5v22.8h-23.5z" fill="url(#f)"/><path d="m440 177.5h22.7v22h-22.7z" fill="#7cfcff"/><path d="m476 137.8h23.5v22.8h-23.5z" fill="url(#g)"/><path d="m476.4 138.1h22.7v22h-22.7z" fill="#7cfcff"/><path d="m468.6 169.7h23.5v22.8h-23.5z" fill="url(#h)"/><path d="m469 170.1h22.7v22h-22.7z" fill="#7cfcff"/><path d="m228.2 103.1h23.5v22.8h-23.5z" fill="url(#i)"/><path d="m228.6 103.5h22.7v22h-22.7z" fill="#7cfcff"/><path d="m118.4 158.3h23.5v22.7h-23.5z" fill="url(#j)"/><path d="m118.8 158.7h22.7v22h-22.7z" fill="#ffffa5"/><path d="m213.1 135.9h23.5v22.8h-23.5z" fill="url(#k)"/><path d="m213.5 136.3h22.7v22h-22.7z" fill="#ffffa5"/><path d="m335.6 122.3h23.5v22.8h-23.5z" fill="url(#l)"/><path d="m336 122.7h22.7v22h-22.7z" fill="#ffffa5"/><path d="m459.6 106.4h23.5v22.8h-23.5z" fill="url(#m)"/><path d="m460 106.8h22.7v22h-22.7z" fill="#ffffa5"/><path d="m366.6 103.1h23.5v22.8h-23.5z" fill="url(#n)"/><path d="m367 103.5h22.7v22h-22.7z" fill="#ffffa5"/><path d="m365.3 147.3h23.5v22.8h-23.5z" fill="url(#o)"/><path d="m365.7 147.7h22.7v22h-22.7z" fill="#ffffa5"/><path d="m259.8 114.1h23.5v22.8h-23.5z" fill="url(#p)"/><path d="m260.2 114.5h22.7v22h-22.7z" fill="#ffffa5"/><path d="m134.9 121.4h23.5v22.8h-23.5z" fill="url(#q)"/><path d="m135.3 121.8h22.7v22h-22.7z" fill="#ff69b4"/><path d="m146.7 147.3h23.5v22.8h-23.5z" fill="url(#r)"/><path d="m147.1 147.7h22.7v22h-22.7z" fill="#ff69b4"/><path d="m244.1 151h23.5v22.8h-23.5z" fill="url(#s)"/><path d="m244.5 151.4h22.7v22h-22.7z" fill="#ff69b4"/><path d="m416.1 106.4h23.5v22.8h-23.5z" fill="url(#t)"/><path d="m416.5 106.8h22.7v22h-22.7z" fill="#ff69b4"/><path d="m436.9 137.8h23.5v22.8h-23.5z" fill="url(#u)"/><path d="m437.3 138.1h22.7v22h-22.7z" fill="#ff69b4"/><path d="m304.4 103.1h23.5v22.8h-23.5z" fill="url(#v)"/><path d="m304.8 103.5h22.7v22h-22.7z" fill="#ff69b4"/><path d="m332.9 169.7h23.5v22.8h-23.5z" fill="url(#w)"/><path d="m333.4 170.1h22.6v22h-22.7v-22z" fill="#ff69b4"/><path d="m468.2 174.2c-.2-1.2-.8-2.3-1.8-3s-2-1.3-3.1-1.8c-.3-.1-.7-.4-.9-.6-.2-.3-.4-.6-.5-1-.6-1.1-1.9-1.4-3-2-1.9-1.1-2.7-3.1-3.5-5.2-.1-.1-.1-.3-.1-.4-.7-2.1-1.5-4.2-3-5.7-2.3-2-5.6-2.2-8.1-.4-.3.3-.7.5-1.1.6-.4-.1-.8-.3-1.1-.6-.8-.5-1.8-.8-2.7-.8-.5-1.9-.7-3.8-.8-5.7v-1.6h.3c.4 0 .8 0 1.1-.1.2 0 .3-.1.4-.2 1.4-.6 2.2-2.2 2.8-3.6.4-1 .8-1.9 1.1-2.9 0-.1.1-.3.1-.4.1-.2.1-.4.2-.6 0-.1 0-.1.1-.2 0-.1 0-.1.1-.2v-.2l.3.2.6.4c2.6 1.8 5.4 3.5 6.5 3.5.1 0 .2 0 .3-.1.7-.4-.7-1.9-2.5-3.5-.1-.1-.3-.3-.5-.4-1.3-1.1-2.7-2.2-3.6-2.8l-.8-.6c1-.9 1.6-2.6 1.9-4.1.3-1.4.4-2.8.5-4.3v.1c.1-1.5-.1-3.1-.4-4.6-.7-2.9-2.4-5.7-5.1-7.1-.8-.4-1.6-.7-2.4-1.1-.1-.1-.3-.2-.4-.3-.2-.2-.5-.4-.7-.6-.1-.1-.2-.3-.3-.5-.1-.1-.1-.2-.1-.2-.1-.3-.2-.5-.4-.7-.5-.6-1.4-.4-2.1-.3h-.5c-2.6.1-5.2-1.4-7.9-1.4-2.9 0-5.4 1.7-8 2.9-.5.2-1 .5-1.5.7-.4.2-.7.4-1.1.6-.1.1-.3.2-.4.2-1 .6-1.7 1.5-2.2 2.5-.5.6-.9 1.3-1.1 2.1-.1.3-.1.7-.1 1.1-3.4 3.3-5.3 7.9-5.3 12.6v.8c.3 7.5 5.4 14 12.6 16.2.2.1.4.1.6.2.1.2.1.3.2.5.1.3.2.7.3 1 .1.2.1.3.1.5.3 1.1.4 2.3.4 3.5v.3c-1.3.3-2.6.8-3.8 1.5-1.5.9-2.6 2.3-3.2 4 0 .1-.1.2-.1.4-.9-.3-1.9-.5-2.9-.5-.9 0-1.9.1-2.5.7-.2.3-.4.6-.5 1-.3.3-.4.9-.6 1.3-.7 1.3-2.7.9-4.1 1.2-.1 0-.3.1-.4.1-1.4.5-2.5 1.7-4 1.7-.6-.1-1.2-.1-1.8-.1h-.1c-.6.2-1.1 1-.6 1.4-.7-.2-1.4.3-1.9.9s-.7 1.3-1.2 1.8c-.4-.6-1.2-.9-1.9-.7s-1.4.4-2 .8c-.3.2-.6.3-.9.3-.4 0-.7 0-1.1-.1-1.7-.3-3.5 0-5.1.7-1.4.7-2.8-.6-4.3-.7-.6 0-1.1-.2-1.6-.5l-.1-.1c-.1-.1-.2-.3-.2-.4-.1-.2-.2-.5-.3-.7-.7-1.9-2.3-3.4-4.3-4l-.3-.1c.1-.3.2-.6.2-.9.3-2.4-1.1-4.7-3.3-5.6.2-1.9-.5-3.7-1.9-4.9-.3-.2-.6-.5-.9-.7h-.1c-.1-.1-.3-.3-.4-.5-.2-.4-.4-.8-.5-1.2-.5-1.2-.9-2.4-1.4-3.6-.6-.1-1.1-.4-1.7-.5v-.4c0-1.2-.2-2.5-.6-3.7-.5-1.4-1.2-2.7-2-3.9-.1-.2-.3-.4-.4-.6-.2-.3-.4-.5-.5-.8-1.3-1.8-2.8-3.6-4.7-4.7-.7-.3-1.3-.7-2-.9l-3.6-1.5c-.2-.1-.4-.2-.6-.2-.9 0-1.1 1.2-.7 2 0 .1.1.2.1.3 1.1 1.6 3.5 2 4.2 3.8-.3 0-.6.1-.9.2-.8.3-1.4 1-1.6 1.8 0 .3-.1.6-.3.8-.3.2-.8.1-1.2.3-.6.3-.4 1.3-.4 2-.1.6-.5 1.2-.6 1.8-.1.5-.2 1-.1 1.4v.4c.1.5.3 1 .6 1.4.7.9 1.4 1.7 2.3 2.4.6.5 1.2 1 1.8 1.4.2.1.4.2.5.4 0 0 0 .1-.1.1 0 .1-.1.1-.1.2-.1.2-.1.4-.1.6s.1.3.2.4c.1.2.3.3.4.5 1.4 1.3 2.4 3.1 2.8 5 .1.4 0 .8 0 1.1-.2.7-.4 1.5-.5 2.3 0 .2 0 .4.1.6.2.9.4 1.8.8 2.6.9 2.4 2 4.9 3.8 6.6.4 3.9 1.9 7.5 4.3 10.6 2 2.5 4.6 4.5 7.3 6.4.8.7 1.7 1.2 2.7 1.7.9.3 1.8.6 2.7.7 7.3 1.5 14.8 2.3 22.2 2.6h1.1c0 .4 0 .8.1 1.2.2 3.9.3 7.8.2 11.8v1.1c0 .8-.1 1.5-.3 2.3-.3.6-.6 1.1-1.1 1.5-.1.1-.2.2-.3.4-1.5 2-1.8 4.8-1.8 7.4v1.2c.2 3.5.6 7 1.3 10.4.6 3.3.3 6.8.8 10.1.2 1.1.4 2.2.8 3.3.6 1.7 1.2 3.3 1.8 5 .2.5.3 1 .4 1.5v.5c-.2.9-.8 1.7-1.2 2.5-.8 1.4-1.1 2.9-1.1 4.5v.1c0 .1 0 .3.1.4.2.3.6.2.9.2 1.3-.2 2.7-.3 4-.4h.1c0 .1-.1.1-.1.2-.2.2-.3.4-.5.7l-.1.1-.9 1.8c-.5 1-.9 2.1-1.2 3.2-.1.2-.1.3-.1.5-.1.3-.2.7-.2 1-.3 1.8-.4 3.5-.4 5.3v.7c0 .8-.1 1.6-.1 2.4-.1 2.8-.3 5.4-.6 6.3-.2.6-.2 1.1-.2 1.7 0 .8.2 1.5.3 2.3.2.8.4 1.6.6 2.5v.1c0 .3 0 .6.1.9.1 1.3.4 2.7.8 3.9v.8c0 .4 0 .7.1 1.1.1 1.1.3 2.1.5 3.2v.2c1 5.7 2.1 11.3 3.1 17 .1.3.1.7.2 1 1.1 6.1 2.3 12.1 3.6 18.1l.3 1.5c.1.2.1.5.2.7s.1.6.2.9c.9 3.3 2.5 6.5 4.6 9.2 1.9 2.4 3.5 5 4.8 7.8 0 .1 0 .1-.1.2-.1.5-.2 1.1-.4 1.6v.1c-1.4 5.8-3.2 11.4-3.8 17.3 0 .4-.1.8-.1 1.3-.2 1.9-.4 3.9-1.1 5.6-.2.5-.5 1-.7 1.5-.3.6-.5 1.2-.5 1.8v.4c0 .6.2 1.3.5 1.8l-.1.1c-.1.1-.3.2-.4.3l-.3.2c-1.8 1.4-4.1 1.7-6.3 2.2-2.2.6-4.5 1.7-5.2 3.9 0 .1-.1.3-.1.4v.9c.2 1.7 1.1 3.3 2.5 4.3 1.8 1.2 4.1 1.6 6.2 1.9s4.4.5 6.4 1.5c1.7.8 3.1 2.2 4.9 2.8.1 0 .2.1.3.1l-.1.1c-.2.1-.5.3-.7.4l-.4.2c-1.9 1-3.9 1.6-5.9 1.9-2.1.3-4.6.4-5.7 2.3v.1c-.1.1-.1.2-.1.3v.3c0 .1-.1.3-.1.4v1.1c.2.9.7 1.8 1.4 2.5 1.3 1.2 3.1 1.7 4.7 2.1 3.9.9 7.8 1.2 11.8 1.5l3.8.3c1.4.1 2.7.2 4.1.3 1 .1 1.9.1 2.9.2 1 0 1.9.1 2.8.1h1.4c2.4 0 4.7-.1 7.1-.3 2.3-.2 4.5-.5 6.8-.9.4 0 .8-.2 1.1-.5 0 0 0-.1.1-.1v-.1-.1-.5-2.6c0-.6-.1-1.2-.1-1.7l-.1-.7v-.5c0-.2 0-.3-.1-.5v-.3l-.1-.8c-.1-.6-.2-1.2-.2-1.8-.2-1.3-.4-2.6-.7-3.9v-.1c-.1-.4-.2-.9-.3-1.3-.3-1.4-2.2.5-3.2 1.7-.1-.7-.3-1.3-.5-1.9s0-.1 0-.1c.3-.1.6-.3.8-.4.6-.2 1.2-.7 1.5-1.3.1-.2.1-.4.2-.7v-.7c-.2-3-.3-6.2-1.8-8.8-.9-1.6-2.1-3-3.5-4.3 0-.3 0-.7-.1-1-.2-3.2-.4-6.5-.7-9.7-.5-5.9-1.4-11.8-2.7-17.6-.4-1.6-.7-3.1-1.2-4.7-.8-3.1-2.2-6.1-4-8.8-.3-.5-.7-1-1.1-1.5-.1-1.9-.3-3.8-.5-5.7-.3-2.6-.7-5.2-1.1-7.8 0-.2-.1-.5-.1-.7 0-.3 0-.7.1-1 .3-.5.6-1 1-1.4.7-1 1.1-2.3 1.1-3.6v-.1c0-1.3-.2-2.8-.3-4.1v-1.3-1.2c.1-3 .9-6 1.5-8.9.7-3.1 1.5-6.1 2.2-9.1l.9-3.6c.1-.4.2-.8.3-1.3.3-1.3.7-2.6 1.2-3.9.8-1.7 2-3.3 3-4.9 2.8-4.3 4.2-9.4 4.3-14.5v-.1-1.1-.8c.6.2 1.3.5 1.9.7 0-.4.1-.8.1-1.2.1-2.4-.5-4.9-.5-7.2v-.2c0-.8 0-1.6.2-2.3.1-.4.2-.7.3-1.1.2-.1.4-.3.5-.4 1.8-1.4 3.2-3.2 4.2-5.2.9-2 1.2-4.4 2.1-6.4.5-1.1 1.3-2.2 1.6-3.4.1-.4.2-.8.2-1.2v-.1c0-1.3-.1-2.6-.3-3.8v-.6c.1-3.5 2.3-6.8 2.5-10.3 0-.6 0-1.2-.1-1.7-.3-1.7-1.2-3.3-1.3-5v-.7c.1-1.1.4-2.1.8-3.1 1.8-4.7 3.5-9.6 3.7-14.6v-.1c0-1.4-.1-2.7-.3-4s-.6-2.6-.7-3.9v-1c.1-1.4.6-2.8.7-4.2.1-.5.1-.9 0-1.4s-.2-.9-.5-1.3c-.1-.2-.2-.4-.4-.6.8-1.3 1.5-2.6 2.1-4 .2-.5.4-1.1.5-1.6.1-.6.2-1 .1-1.3zm-34.8 224.8c-.6-.3-1.2-.4-1.7-.5h-.4c.1-.5.2-1 .2-1.4v-1.4-.9c0-.3-.1-.6-.1-.9v-.1c.1.2.1.4.2.6.4 1.4 1.1 3 1.8 4.6z" fill="url(#x)"/><path d="m421.6 155.8c-.1 2.6-.9 5.1-1.1 7.7 7.6.4 15.1-3.3 22.7-2.2-2.1-1.4-3.2-3.8-3.9-6.2-.8-3.1-1.1-6.4-.7-9.6 0-.2 0-.3.1-.5.3-1.3 1-3.1.8-4-.3-1.3-1.5-1.1-2.6-1-3.4.3-6.8.7-10.2 1.3-.9.2-9.4 2.3-9.5 2.1 1.4 2.4 2.8 5 3.7 7.6.5 1.5.8 3.1.7 4.8zm-75.2-8c.7.9 1.4 1.7 2.3 2.3.6.5 1.2 1 1.8 1.4 1.1.8 2.4 1.4 3.8 1.5 1.8.1 5.7-.9 6.8-2.5.5-.8.7-1.7.6-2.6 0-1.2-.2-2.5-.6-3.6-.7-1.9-1.7-3.7-2.9-5.3-1.3-1.8-2.8-3.6-4.7-4.7-.6-.3-1.3-.7-2-.9l-3.6-1.5c-.2-.1-.4-.2-.6-.2-1 0-1.1 1.5-.6 2.2 1.1 1.6 3.5 2 4.2 3.8-1.2 0-2.2.8-2.5 2 0 .3-.1.6-.3.8-.3.2-.8.1-1.2.3-.6.3-.4 1.3-.4 2-.1.6-.5 1.2-.7 1.8-.4 1.2-.1 2.3.6 3.2z" fill="#ee8e9e"/><path d="m451.3 407c-.6-.6-1.5-.5-2.4-.4-4.4.7-8.8 1.1-13.3 1.1-.6-2.7 1.1-5.4 1.6-8.1.1-.7.2-1.4.5-2 .6-1.2 2-1.8 3.4-2 2.4-.5 6.1-1.4 7.5 1 1.6 2.9 2.1 7.2 2.7 10.4z" fill="#65617d"/><path d="m402.6 396.7c1.8 1.2 4 1.6 6.2 1.9s4.4.5 6.4 1.5c1.7.8 3.1 2.2 4.9 2.8 1.6.5 3.4.4 5.1.1 2-.4 4.2-1.1 5.3-2.9 1-1.5.9-3.5.7-5.3-.2-2-.3-4.1-.5-6.2 0-.5-.1-1-.4-1.5-1.5-2.1-5 .9-6.9.9-3 0-6.2-1.6-8.4-3.6-.2-.2-.4-.4-.7-.5-.9-.4-1.7.3-2.5.9-.1.1-.2.1-.3.2-1.8 1.4-4.1 1.7-6.3 2.2-2.2.6-4.5 1.7-5.2 3.8 0 .1-.1.3-.1.4-.1 2.1 1.1 4.2 2.7 5.3z" fill="#3f3d56"/><path d="m402.6 396.7c1.8 1.2 4 1.6 6.2 1.9s4.4.5 6.4 1.5c1.7.8 3.1 2.2 4.9 2.8 1.6.5 3.4.4 5.1.1 2-.4 4.2-1.1 5.3-2.9 1-1.5.9-3.5.7-5.3-.2-2-.3-4.1-.5-6.2 0-.5-.1-1-.4-1.5-1.5-2.1-5 .9-6.9.9-3 0-6.2-1.6-8.4-3.6-.2-.2-.4-.4-.7-.5-.9-.4-1.7.3-2.5.9-.1.1-.2.1-.3.2-1.8 1.4-4.1 1.7-6.3 2.2-2.2.6-4.5 1.7-5.2 3.8 0 .1-.1.3-.1.4-.1 2.1 1.1 4.2 2.7 5.3z" opacity=".05"/><path d="m402.6 397.4c1.8 1.2 4 1.6 6.2 1.9s4.4.5 6.4 1.5c1.7.8 3.1 2.2 4.9 2.8 1.6.5 3.4.4 5.1.1 2.2-.5 4-1.7 5.3-3.6 1-1.5.9-3.5.7-5.3-.2-2-.3-4.1-.5-6.2 0-.5-.1-1-.4-1.5-1.5-2.1-5 .9-6.9.9-3 0-6.2-1.6-8.4-3.6-.2-.2-.4-.4-.7-.5-.9-.4-1.7.3-2.5.9.5 1.5 1.2 3 2.1 4.4 1.5 2.2 3.9 3.9 6.6 4.1 1.3.1 2.7-.2 4 .2 1.3.3 2.5 1.7 2 2.9-.5 1.3-2 1.5-3.4 1.6-1.8.1-3.7.2-5.5-.4-1.1-.4-2-.9-3.1-1.4-4.4-1.8-10-.8-13.6-3.9-.3-.3-.7-.6-1.1-.9-.6 2.1 1.2 4.9 2.8 6z" fill="#e8eaf2"/><path d="m402.6 397.4c1.8 1.2 4 1.6 6.2 1.9s4.4.5 6.4 1.5c1.7.8 3.1 2.2 4.9 2.8 1.6.5 3.4.4 5.1.1 2.2-.5 4-1.7 5.3-3.6 1-1.5.9-3.5.7-5.3-.2-2-.3-4.1-.5-6.2 0-.5-.1-1-.4-1.5-1.5-2.1-5 .9-6.9.9-3 0-6.2-1.6-8.4-3.6-.2-.2-.4-.4-.7-.5-.9-.4-1.7.3-2.5.9.5 1.5 1.2 3 2.1 4.4 1.5 2.2 3.9 3.9 6.6 4.1 1.3.1 2.7-.2 4 .2 1.3.3 2.5 1.7 2 2.9-.5 1.3-2 1.5-3.4 1.6-1.8.1-3.7.2-5.5-.4-1.1-.4-2-.9-3.1-1.4-4.4-1.8-10-.8-13.6-3.9-.3-.3-.7-.6-1.1-.9-.6 2.1 1.2 4.9 2.8 6z" opacity=".05"/><path d="m450.5 262.6c1.4 6.9.1 14.1-3.7 20-1 1.6-2.2 3.1-3 4.8-.5 1.2-.9 2.5-1.2 3.8l-3.3 13.9c-.9 3.7-1.8 7.5-1.5 11.4.2 2.7.9 5.7-.8 7.8-.4.4-.7.9-1 1.4-.2.6-.2 1.2 0 1.8 1.7 10.1 2.9 20.6-.1 30.3-2.8 8.8-2.9 18.6-5.3 27.5-.3 1.1-.6 2.3-1.5 3.1-.6.5-1.4.9-2.2 1-3.5.8-7.1-.1-10.4-1.6-2.3-1.1-4.7-2.9-4.5-5.4.1-1.2.8-2.2 1.3-3.3.9-2.1 1-4.5 1.2-6.9.6-5.8 2.4-11.5 3.8-17.2s2.3-11.7 1.1-17.5c-2.3-11.9-6.1-23.5-11.2-34.5-.2-.6-.6-1.1-1-1.5-.5-.4-1.1-.6-1.5-1-.4-.5-.5-1.2-.7-1.8-.5-1.8-2-3.2-3-4.8-2.5-4-1.7-9.2-1.6-14 .1-4.7-.6-9.3.2-13.9s3.4-9.3 7.8-10.7c2.2-.7 4.6-.6 6.9-.3 12 1 23.8 3.2 35.2 7.6z" fill="#303d5c"/><path d="m450.5 262.6c1.4 6.9.1 14.1-3.7 20-1 1.6-2.2 3.1-3 4.8-.5 1.2-.9 2.5-1.2 3.8l-3.3 13.9c-.9 3.7-1.8 7.5-1.5 11.4.2 2.7.9 5.7-.8 7.8-.4.4-.7.9-1 1.4-.2.6-.2 1.2 0 1.8 1.7 10.1 2.9 20.6-.1 30.3-2.8 8.8-2.9 18.6-5.3 27.5-.3 1.1-.6 2.3-1.5 3.1-.6.5-1.4.9-2.2 1-3.5.8-7.1-.1-10.4-1.6-2.3-1.1-4.7-2.9-4.5-5.4.1-1.2.8-2.2 1.3-3.3.9-2.1 1-4.5 1.2-6.9.6-5.8 2.4-11.5 3.8-17.2s2.3-11.7 1.1-17.5c-2.3-11.9-6.1-23.5-11.2-34.5-.2-.6-.6-1.1-1-1.5-.5-.4-1.1-.6-1.5-1-.4-.5-.5-1.2-.7-1.8-.5-1.8-2-3.2-3-4.8-2.5-4-1.7-9.2-1.6-14 .1-4.7-.6-9.3.2-13.9s3.4-9.3 7.8-10.7c2.2-.7 4.6-.6 6.9-.3 12 1 23.8 3.2 35.2 7.6z" opacity=".05"/><path d="m401 291.7c0 1.8.2 3.6.6 5.4 2.1 12 4.4 24 6.8 35.9.2 1 .4 2.1.7 3.1.9 3.3 2.5 6.4 4.6 9.1 10.1 12.6 11 30.8 16.4 46 .4 1 .7 2 1.1 3.1 1 2.6 2.1 5.1 3.4 7.5.1.4.4.7.7.9s.7.2 1.1.2c4.9 0 9.8-1.1 14.2-3.2.6-.2 1.2-.7 1.5-1.3.2-.5.2-1 .2-1.4-.2-3-.3-6.1-1.8-8.8-1-1.6-2.1-3-3.5-4.2-.4-9.4-1.4-18.9-3.4-28.1-1.1-4.7-2.4-9.5-5.1-13.5-2-2.9-4.9-5.8-4.6-9.4.2-1.5.8-3.5-.5-4.4-.6-.4-1.4-.5-1.7-1-.2-.3-.2-.6-.2-.9-.3-2.4-.1-4.9.4-7.3.4-1.6.9-3.1 1.1-4.7s-.1-3.4-1.2-4.6c-.1-3.2 0-6.6 0-9.8 0-1.8-.1-3.7.5-5.5.2-.9.6-1.7.8-2.5.7-3.1-1-6.8 1-9.3.8-1 2.1-1.5 3.2-2.3 2.2-1.5 3.6-3.9 4.4-6.4s1-5.2 1.3-7.8c.1-.6.1-1.1 0-1.7 0-.3-.1-.6-.2-.8-.6-1.4-2.3-2-3.8-2.3-9.5-2.3-19.3-3.4-29-3.4-3.6-2.5-5.7-1.6-7.2 1-.8 1.6-1.5 3.3-2 5-.7 2.1-.7 14-1.4 16.1-.9 2.8 1.7 8.4 1.6 11.3z" fill="#303d5c"/><path d="m466.4 183.9c.3 1.9-.6 3.7-.7 5.6-.1 1.6.4 3.2.7 4.9 1.2 6.3-1.1 12.7-3.4 18.7-.4 1-.7 2-.8 3.1-.1 2 1.1 3.8 1.4 5.7.6 4.1-2.3 7.9-2.4 12 0 1.9.6 3.8.1 5.7-.3 1.2-1.1 2.3-1.6 3.4-1 2-1.2 4.3-2.1 6.4-1.7 3.7-5.2 6.1-8.6 8.3-1.9-.6-4-1.4-5.1-3.1-.5-.9-.8-1.8-.9-2.8-.7-4.2-.7-8.5-.7-12.8-.1-3.7.1-7.3.6-11 .7-4.6 2.2-9.1 3.3-13.7 1.4-5.8 2-11.7 4.2-17.2 1.9-4.9 4.8-9.2 7.8-13.4 1.2-1.6 2.1-3.9 4.4-3.5 1.9.2 3.5 1.8 3.8 3.7z" fill="#fff200"/><path d="m466.4 183.9c.3 1.9-.6 3.7-.7 5.6-.1 1.6.4 3.2.7 4.9 1.2 6.3-1.1 12.7-3.4 18.7-.4 1-.7 2-.8 3.1-.1 2 1.1 3.8 1.4 5.7.6 4.1-2.3 7.9-2.4 12 0 1.9.6 3.8.1 5.7-.3 1.2-1.1 2.3-1.6 3.4-1 2-1.2 4.3-2.1 6.4-1.7 3.7-5.2 6.1-8.6 8.3-1.9-.6-4-1.4-5.1-3.1-.5-.9-.8-1.8-.9-2.8-.7-4.2-.7-8.5-.7-12.8-.1-3.7.1-7.3.6-11 .7-4.6 2.2-9.1 3.3-13.7 1.4-5.8 2-11.7 4.2-17.2 1.9-4.9 4.8-9.2 7.8-13.4 1.2-1.6 2.1-3.9 4.4-3.5 1.9.2 3.5 1.8 3.8 3.7z" opacity=".05"/><path d="m417.2 143.3c1.4 2.4 2.8 5 3.7 7.6 1.4.3 2.8.5 4.2.5 5.5 0 9.4-3.1 12.6-7.1.3-1.3 2-2.4 1.8-3.4-.3-1.3-1.5-1.1-2.6-1-3.4.3-6.8.7-10.2 1.3-.9.2-9.4 2.3-9.5 2.1z" opacity=".1"/><circle cx="425.1" cy="133.3" fill="#ee8e9e" r="17.6"/><path d="m402.9 259.3c3.1-.2 6.1-.1 9.2.1 1.9 0 3.8.2 5.7.6 2.3.5 4.5 1.6 6.7 2.2 3.6 1.1 7.5 1.1 11.3 1.5 2.5.2 4.9.6 7.4 1.2 0-.3-.1-.6-.2-.8-.6-1.4-2.3-2-3.8-2.3-9.5-2.3-19.3-3.4-29-3.4-3.8-2.6-5.8-1.7-7.3.9z" opacity=".1"/><path d="m414.8 162.1c.8.9 1.8 1.9 2.9 1.6.4-.1.8-.3 1.1-.6 2-1.3 4.5-1.6 6.9-2 4.8-.7 9.6-1.8 14.2-3.2 1.4-.5 2.8-.8 4.2-.9 3 0 5.6 2 7.5 4.3s3.2 5 5 7.4c1.3 1.7 2.9 3.2 4.1 4.9 3.1 4.4 3.7 10.1 2.9 15.4s-2.9 10.3-5 15.2c-1.2 2.8-2.4 5.7-4.1 8.2.7 4 .3 8.6-1.6 12.2-.6 1.2-1.4 2.3-1.6 3.6-.1.9-.1 1.8.1 2.7l.9 6.4c.3 1.9.5 3.9.9 5.8.6 3.5 1.5 7.4-.1 10.5-2 3.8.1 8.7-.4 13-5.5-2.1-11.3-3.5-17.1-4.1-3.8-.4-7.6-.4-11.3-1.5-2.3-.7-4.4-1.7-6.7-2.2-1.9-.4-3.8-.6-5.7-.6-4.2-.2-8.5-.3-12.6.3-.3.1-.7.1-1-.2-.1-.2-.1-.3-.1-.5-.1-1.6.3-3.1 1.1-4.5.5-.9 1.3-1.9 1.2-2.9 0-.5-.2-1-.4-1.5l-1.8-4.9c-1.6-4.2-.8-9-1.6-13.4-.6-3.4-1-6.9-1.2-10.3-.2-3-.1-6.2 1.7-8.5.5-.6 1-1.2 1.3-1.9s.4-1.5.3-2.2c0-5.9-.1-11.9-.5-17.8 1.6-2.8 3.2-5.7 4.7-8.5 1.8-3.3 3.7-6.6 4.4-10.2.5-2.4.5-4.9.8-7.4 0-.6.3-1.2.6-1.7.6-.7 1.6-.8 2.5-.7 1.4.1 2.5.3 3.5.7z" fill="#fff200"/><path d="m350.5 151.6c1.1.8 2.4 1.4 3.8 1.5 1.8.1 5.7-.9 6.8-2.5.5-.8.7-1.7.6-2.6-.2-.1-.5-.1-.8-.1-2-.1-4-.2-5.9.2s-3.7 1.6-4.5 3.5z" opacity=".1"/><path d="m409 189.6c-1.1 1.3-2.2 2.7-3.7 3.5-1.7.9-3.8.9-5.8.9-8.1-.2-16.2-1.1-24.1-2.6-.9-.2-1.8-.4-2.7-.7-1-.5-1.9-1-2.7-1.7-2.6-1.9-5.3-3.8-7.3-6.3-2.4-3.1-3.9-6.7-4.3-10.5-1.9-1.7-2.9-4.2-3.8-6.6-.5-1-.8-2.1-.9-3.2s.7-2.3.5-3.4c-.4-1.9-1.3-3.7-2.8-5-.3-.2-.5-.5-.7-.9 0-.3 0-.6.2-.9.8-1.8 2.7-3 4.6-3.4s3.9-.4 5.9-.2c.7 0 1.2.4 1.9.5l1.4 3.6c.2.6.5 1.2.9 1.7.3.3.6.5 1 .8 1.4 1.2 2.1 3 1.9 4.9 2.6 1 3.9 3.8 3.1 6.5 2.1.5 3.8 2 4.5 4 .1.5.3.9.6 1.2.5.4 1 .5 1.6.5 1.5.1 2.9 1.3 4.3.7 1.6-.7 3.4-1 5.1-.7.4.1.7.1 1.1.1l.9-.3c.6-.4 1.3-.6 2-.8s1.5.1 1.9.7c.5-.5.8-1.2 1.2-1.8s1.1-1 1.9-.9c-.5-.4 0-1.2.6-1.4s1.2.1 1.9.1c1.6 0 2.9-1.5 4.5-1.9 1.5-.4 3.4.1 4.1-1.2.3-.5.3-1.1.8-1.4.3-.2.6-.2 1-.1 1 .1 2 .4 3 .9 1.5 6 .7 12.1-.4 18.2-.5 2.5-1.4 4.8-3.2 7.1z" fill="#fff200"/><path d="m409 210.9 7.6 15.3c-.8-1.4-2.5-2-3.9-2.9-1.7-1.2-3-3-3.7-5s-1.2-4.1-1.5-6.2c-.2-1-.5-2.3 0-3.2.9.2 1.2 1.3 1.5 2zm21.8 13c1.7 1.7 3.8 2.9 5.7 4.4 4.4 3.5 7.5 8.3 10.6 13 .9 1.2 1.6 2.6 2.2 4-.4.3-.9 0-1.2-.3l-5.9-5.2c-.7-.6-1.4-1.3-2-2-1-1.4-1.5-3.1-2.4-4.6s-2.3-2.5-3.6-3.7-7.6-6.5-6.1-8.5c.9.5 1.8 2 2.7 2.9z" opacity=".1"/><path d="m417.8 157.7c1.9-1.2 4.1-1.7 6.3-2.1 1.3-.3 2.7-.4 4-.3 1.2.2 2.4.6 3.7.7 1.7.1 3.4-.6 5.1-1.1s3.6-.6 5.1.4c.3.3.7.5 1.1.6.4-.1.8-.3 1.1-.6 2.5-1.8 5.8-1.6 8.1.4 3.2 3 2.9 8.9 6.6 11.2 1 .6 2.4 1 3 2 .1.3.3.7.5 1 .3.3.6.5.9.6 1.1.5 2.1 1.1 3.1 1.8s1.6 1.8 1.8 3c0 .9-.2 1.8-.6 2.5-3.8 9.3-13 15.2-23 14.7-.9 0-1.8-.2-2.4-.8-.4-.4-.6-.9-.8-1.4-1.8-3.7-5.1-6.5-7.2-10-1.3-2.1-2.1-4.5-3.4-6.5-2-3.2-5-5.5-7.9-7.7-1.7-1.3-3.5-2.6-5.6-2.5-1.9.1-3.2.2-2.5-2.1.4-1.5 1.5-2.9 3-3.8z" fill="#fff200"/><path d="m417.8 157.7c1.9-1.2 4.1-1.7 6.3-2.1 1.3-.3 2.7-.4 4-.3 1.2.2 2.4.6 3.7.7 1.7.1 3.4-.6 5.1-1.1s3.6-.6 5.1.4c.3.3.7.5 1.1.6.4-.1.8-.3 1.1-.6 2.5-1.8 5.8-1.6 8.1.4 3.2 3 2.9 8.9 6.6 11.2 1 .6 2.4 1 3 2 .1.3.3.7.5 1 .3.3.6.5.9.6 1.1.5 2.1 1.1 3.1 1.8s1.6 1.8 1.8 3c0 .9-.2 1.8-.6 2.5-3.8 9.3-13 15.2-23 14.7-.9 0-1.8-.2-2.4-.8-.4-.4-.6-.9-.8-1.4-1.8-3.7-5.1-6.5-7.2-10-1.3-2.1-2.1-4.5-3.4-6.5-2-3.2-5-5.5-7.9-7.7-1.7-1.3-3.5-2.6-5.6-2.5-1.9.1-3.2.2-2.5-2.1.4-1.5 1.5-2.9 3-3.8z" opacity=".05"/><path d="m408.7 412.5c1.3 1.2 3 1.7 4.7 2.1 3.9.8 7.8 1.1 11.8 1.5l3.8.3c3.7.3 7.5.6 11.3.6 4.6 0 9.3-.4 13.9-1.2.6.1 1.2-.4 1.3-1v-.4c-.1-4.7-.6-9.3-1.7-13.9-.4-1.9-3.8 2.3-3.9 2.5-.9 1.1-1.6 1.5-3.1 1.6-3.9.2-8.2-2.1-11.3-4.2-.7-.5-1.4-.9-2.1-1.3-.5-.3-1.1-.4-1.7-.5-2-.2-4 .2-5.8 1.2-2.3 1.1-4.3 2.8-6.6 4-1.9 1-3.9 1.6-5.9 1.9-2.1.3-4.6.4-5.7 2.2-1 1.4-.3 3.4 1 4.6z" fill="#3f3d56"/><path d="m408.7 413.2c1.3 1.2 3 1.7 4.7 2.1 3.9.8 7.8 1.1 11.8 1.5l3.8.3c3.7.3 7.5.6 11.3.6 4.6 0 9.3-.4 13.9-1.2.4 0 .8-.2 1.1-.5.2-.3.9-1.3.9-1.6-.1-4.7-1.3-9.4-2.4-13.9-.4-1.9-3.8 2.3-3.9 2.5-.9 1.1-1.6 1.5-3.1 1.6-3.9.2-8.2-2.1-11.3-4.2-.7-.5-1.4-.9-2.1-1.3-.5-.3-1.1-.4-1.7-.5.5 2.8 4.5 6.1 6.5 7.2 4.2 2.1 9.1 1 13.8 1.3.3 0 .7.1 1 .2.6.4.6 1.2.6 1.8 0 1.1-.2 2.4-1.1 3-.5.2-1 .3-1.5.3-11.5.5-22.9.1-34.3-1.2-1.9-.1-3.8-.5-5.6-1.2-1.2-.5-2.3-1.2-3.2-2.1-1.7 1.1-.5 4.1.8 5.3z" fill="#e8eaf2"/><path d="m418.2 133.2c.1 1.8-1.2 5.3 2.2 4.4 2-.6 2.6-3 5.2-2.5s3.2 3.7 4 5.8c1.4 3.3 4.4 5.8 8 6.5.7.2 1.5.2 2.2 0 1.7-.5 2.6-2.2 3.3-3.8.6-1.3 1.1-2.7 1.5-4.1.3-1 .4-2 .5-3.1.1-.7.1-1.4 0-2.1-.3-4.1-2.7-7.9-5.7-10.8s-6.7-4.9-10.3-6.9c-1.2-.7-2.5-1.3-3.8-1.7-1.3-.3-2.7-.3-4-.2-1.8.1-3.5.5-5.1 1.2-.7.3-1.3.7-1.8 1.3-.7.7-1.3 1.6-1.5 2.6-.7 2.7 1 5.1 2.4 7.2 1.3 1.8 2.8 3.8 2.9 6.2z" fill="#3f3d56"/><path d="m361 172.2c.7-1.8 3.8-6.9 2.9-8.6-.9 1.3-1.7 2.7-2.3 4.2-.6 1.3-.1 3.2-.6 4.4zm54.3-45.2c-1.4-2.1-3.1-4.5-2.4-7.2.3-1.2 1-2.2 2-3-.2.4-.4.8-.5 1.2-.7 2.7 1.1 5.1 2.4 7.2 1.2 1.9 2.8 3.9 2.8 6.2.1 1.8-1.2 5.3 2.2 4.4 2-.6 2.6-3 5.2-2.5s3.2 3.7 4 5.8c1.4 3.3 4.4 5.8 8 6.5.7.2 1.5.2 2.2 0 .4-.1.7-.3 1-.5-.5 1-1.4 1.8-2.5 2.2-.7.2-1.5.2-2.2 0-3.6-.7-6.6-3.1-8-6.5-.9-2.1-1.4-5.2-4-5.8-2.6-.5-3.1 1.9-5.2 2.5-3.4 1-2.2-2.5-2.2-4.4 0-2.3-1.6-4.3-2.8-6.1z" opacity=".1"/><path d="m414.6 123.3c.3.5.7 1 1 1.5.7.9 1.5 1.7 2.4 2.5.5.5 1.1.9 1.6 1.3 1 .7 2.1 1.4 3.3 2 3.3 1.7 6.9 2.7 10.5 3.8l7 2c.9.7 2.4 1.8 4.2 3.1.3-1 .4-2 .5-3.1.1-.7.1-1.4 0-2.1-.3-4.1-2.7-7.9-5.7-10.8s-6.7-4.9-10.3-6.9c-1.2-.7-2.5-1.3-3.8-1.7-1.3-.3-2.7-.3-4-.2-1.8.1-3.5.5-5.1 1.2-.7.3-1.3.7-1.8 1.3-.4.6-.7 1.2-.9 1.9-.3 1.4.3 3 1.1 4.2z" opacity=".1"/><path d="m414.6 122.9c.3.5.7 1 1 1.5.7.9 1.5 1.7 2.4 2.5.5.5 1.1.9 1.6 1.3 1 .7 2.1 1.4 3.3 2 3.3 1.7 6.9 2.7 10.5 3.8l7 2c2.5 1.9 10.6 7.9 12 7.2 1.6-.9-7.3-7.2-7.3-7.2l-.4.3c1.3-.8 2-2.7 2.3-4.4.5-2.9.8-6 .1-8.9s-2.4-5.7-5.1-7c-1.2-.6-2.6-1-3.5-2-.1-.1-.2-.3-.3-.5 0-.1-.1-.2-.1-.2-.1-.3-.2-.5-.4-.7-.5-.6-1.4-.4-2.1-.3h-.6c-2.6.1-5.2-1.4-7.9-1.4-2.9 0-5.4 1.7-8 2.8-.5.2-1 .4-1.5.7-1.9.9-3.3 1.8-4 4.3-.4 1.3.2 2.9 1 4.2z" fill="#fff200"/><path d="m435 112.2c-.3.5-.2 1.2.3 1.5.3.2.7.4 1.1.4.3 0 .6.1.9.1.4 0 .8 0 1.1-.2.1 0 .1-.1.2-.1-.1-.1-.2-.3-.3-.5-.1.1-.1 0-.4 0-.5 0-1-.1-1.4-.2-.5-.1-.9-.5-1-1zm10 23.6c-.4.2-.8.4-1.2.5-.3.1-.6.1-.9.2-.8 0-1.6-.3-2.3-.6z" opacity=".1"/><path d="m225.3 190.9-.7-1.5-.3.1.7 1.5 5 10.5c-.1.1-1.6 1.9-1.5 3.6 0 .3 0 .5.1.8.3.7.6 1 .9 1.1v-.1-.7-.1-.2l.1-.2v-.2c0-.1.1-.1.1-.2v-.1l.1-.1c.1-.1.1-.3.2-.4s.1-.3.2-.4c.2-.3.4-.7.7-1zm5.5 17.6h-.4-.1c-.1 0-.1-.1-.2-.1l-.1-.1c-.2-.2-.3-.4-.4-.6-.1.2-.1.4-.1.6 0 .4.2.7.5.9.2.1.4.3.5.5 0-.2.1-.4.2-.6.1-.1.1-.2.2-.3 0 0 0-.1.1-.1v-.1l.1-.1zm0 0h-.4-.1c-.1 0-.1-.1-.2-.1l-.1-.1c-.2-.2-.3-.4-.4-.6-.1.2-.1.4-.1.6 0 .4.2.7.5.9.2.1.4.3.5.5 0-.2.1-.4.2-.6.1-.1.1-.2.2-.3 0 0 0-.1.1-.1v-.1l.1-.1zm-5.5-17.6-.7-1.5-.3.1.7 1.5 5 10.5c-.1.1-1.6 1.9-1.5 3.6 0 .3 0 .5.1.8.3.7.6 1 .9 1.1v-.1-.5-.2-.1-.2l.1-.2v-.2c0-.1.1-.1.1-.2v-.1l.1-.1c.1-.1.1-.3.2-.4s.1-.3.2-.4c.2-.3.4-.7.7-1zm5.5 17.6h-.4-.1c-.1 0-.1-.1-.2-.1l-.1-.1c-.2-.2-.3-.4-.4-.6-.1.2-.1.4-.1.6 0 .4.2.7.5.9.2.1.4.3.5.5 0-.2.1-.4.2-.6l.1-.2v-.1s0-.1.1-.1v-.1l.1-.1zm-5.5-17.6-.7-1.5-.3.1.7 1.5 5 10.5c-.1.1-1.6 1.9-1.5 3.6 0 .3 0 .5.1.8.3.7.6 1 .9 1.1v-.1-.5-.2-.1-.2l.1-.2v-.2c0-.1.1-.1.1-.2v-.1l.1-.1c.1-.1.1-.3.2-.4s.1-.3.2-.4c.2-.3.4-.7.7-1zm5.5 17.6h-.4-.1c-.1 0-.1-.1-.2-.1l-.1-.1c-.2-.2-.3-.4-.4-.6-.1.2-.1.4-.1.6 0 .4.2.7.5.9.2.1.4.3.5.5 0-.2.1-.4.2-.6l.1-.2v-.1s0-.1.1-.1v-.1l.1-.1zm-5.5-17.6-.7-1.5-.3.1.7 1.5 5 10.5c-.1.1-1.6 1.9-1.5 3.6 0 .3 0 .5.1.8.3.7.6 1 .9 1.1v-.1-.5-.2-.1-.2l.1-.2v-.2c0-.1.1-.1.1-.2v-.1l.1-.1c.1-.1.1-.3.2-.4s.1-.3.2-.4c.2-.3.4-.7.7-1zm5.5 17.6h-.4-.1c-.1 0-.1-.1-.2-.1l-.1-.1c-.2-.2-.3-.4-.4-.6-.1.2-.1.4-.1.6 0 .4.2.7.5.9.2.1.4.3.5.5 0-.2.1-.4.2-.6l.1-.2v-.1s0-.1.1-.1v-.1l.1-.1zm-5.5-17.6-.7-1.5-.3.1.7 1.5 5 10.5c-.1.1-1.6 1.9-1.5 3.6 0 .3 0 .5.1.8.3.7.6 1 .9 1.1v-.1-.5-.2-.1-.2l.1-.2v-.2c0-.1.1-.1.1-.2v-.1l.1-.1c.1-.1.1-.3.2-.4s.1-.3.2-.4c.2-.3.4-.7.7-1zm5.5 17.6h-.4-.1c-.1 0-.1-.1-.2-.1l-.1-.1c-.2-.2-.3-.4-.4-.6-.1.2-.1.4-.1.6 0 .4.2.7.5.9.2.1.4.3.5.5 0-.2.1-.4.2-.6l.1-.2v-.1s0-.1.1-.1v-.1l.1-.1zm-5.5-17.6-.7-1.5-.3.1.7 1.5 5 10.5c-.1.1-1.6 1.9-1.5 3.6 0 .3 0 .5.1.8.3.7.6 1 .9 1.1v-.1-.5-.2-.1-.2l.1-.2v-.2c0-.1.1-.1.1-.2v-.1l.1-.1c.1-.1.1-.3.2-.4s.1-.3.2-.4c.2-.3.4-.7.7-1zm5.5 17.6h-.4-.1c-.1 0-.1-.1-.2-.1l-.1-.1c-.2-.2-.3-.4-.4-.6-.1.2-.1.4-.1.6 0 .4.2.7.5.9.2.1.4.3.5.5 0-.2.1-.4.2-.6l.1-.2v-.1s0-.1.1-.1v-.1l.1-.1zm-5.5-17.6-.7-1.5-.3.1.7 1.5 5 10.5c-.1.1-1.6 1.9-1.5 3.6 0 .3 0 .5.1.8.3.7.6 1 .9 1.1v-.1-.5-.2-.1-.2l.1-.2v-.2c0-.1.1-.1.1-.2v-.1l.1-.1c.1-.1.1-.3.2-.4s.1-.3.2-.4c.2-.3.4-.7.7-1zm5.5 17.6h-.4-.1c-.1 0-.1-.1-.2-.1l-.1-.1c-.2-.2-.3-.4-.4-.6-.1.2-.1.4-.1.6 0 .4.2.7.5.9.2.1.4.3.5.5 0-.2.1-.4.2-.6l.1-.2v-.1s0-.1.1-.1v-.1l.1-.1zm-5.5-17.6-.7-1.5-.3.1.7 1.5 5 10.5c-.1.1-1.6 1.9-1.5 3.6 0 .3 0 .5.1.8.3.7.6 1 .9 1.1v-.1-.5-.2-.1-.2l.1-.2v-.2c0-.1.1-.1.1-.2v-.1l.1-.1c.1-.1.1-.3.2-.4s.1-.3.2-.4c.2-.3.4-.7.7-1zm5.5 17.6h-.4-.1c-.1 0-.1-.1-.2-.1l-.1-.1c-.2-.2-.3-.4-.4-.6-.1.2-.1.4-.1.6 0 .4.2.7.5.9.2.1.4.3.5.5 0-.2.1-.4.2-.6l.1-.2v-.1s0-.1.1-.1v-.1l.1-.1zm-5.5-17.6-.7-1.5-.3.1.7 1.5 5 10.5c-.1.1-1.6 1.9-1.5 3.6 0 .3 0 .5.1.8.3.7.6 1 .9 1.1v-.1-.5-.2-.1-.2l.1-.2v-.2c0-.1.1-.1.1-.2v-.1l.1-.1c.1-.1.1-.3.2-.4s.1-.3.2-.4c.2-.3.4-.7.7-1zm5.5 17.6h-.4-.1c-.1 0-.1-.1-.2-.1l-.1-.1c-.2-.2-.3-.4-.4-.6-.1.2-.1.4-.1.6 0 .4.2.7.5.9.2.1.4.3.5.5 0-.2.1-.4.2-.6l.1-.2v-.1s0-.1.1-.1v-.1l.1-.1zm-5.5-17.6-.7-1.5-.3.1.7 1.5 5 10.5c-.1.1-1.6 1.9-1.5 3.6 0 .3 0 .5.1.8.3.7.6 1 .9 1.1v-.1-.5-.2-.1-.2l.1-.2v-.2c0-.1.1-.1.1-.2v-.1l.1-.1c.1-.1.1-.3.2-.4s.1-.3.2-.4c.2-.3.4-.7.7-1zm5.5 17.6h-.4-.1c-.1 0-.1-.1-.2-.1l-.1-.1c-.2-.2-.3-.4-.4-.6-.1.2-.1.4-.1.6 0 .4.2.7.5.9.2.1.4.3.5.5v-.1c0-.2.1-.4.2-.6l.1-.2.1-.2v-.1l.1-.1c0 .1-.1.1-.2.1zm-1.1-3.1c0-.1.1-.1.1-.2v-.1s0-.1.1-.1c.1-.1.1-.3.2-.4s.1-.3.2-.4c.2-.3.4-.7.7-1l-5.7-12.2-.7-1.5-.3.1.7 1.5 5 10.5c-.1.1-1.6 1.9-1.5 3.6 0 .3 0 .5.1.8.3.7.6 1 .9 1.1v-.1-.5-.2-.4l.1-.2c0-.2.1-.3.1-.3zm76.7-71.4c-.6-.8-1.5-1.3-2.4-1.6-1-.2-2 .1-2.8.6.2-.2 1.5-1.6 2.5-3 1.3-1.6 2.2-3.2 1-2.9-2.4.5-6.7 5.8-6.7 5.8l-.9 1.6-2.6 4.6-.3.5c-.9 0-1.7.1-2.6.3l-.3.4c-.4.6-1.2 1.8-1.3 2.5-.1 1-4.4 2.9-6.1 3.9s-3.4 4.3-3.4 4.3-5.8.5-7.4 2c-1.1 1.1-3.9 1.1-5.5 1h-.4c-.4 0-.7-.1-.7-.1s-1.6-1.8-2.9-1.9c-.8-.1-1.6-.1-2.4 0 0 0-.7-.2-1.6-.5l-.3-.1c-.2-.1-.5-.1-.7-.2l-.2-.1.3-.3c.1-.2.3-.4.3-.6.2-.4.2-.9.2-1.3-.1-.5-.3-.9-.5-1.3-.2-.2-.3-.5-.5-.7-.8-1.4-1.3-2.9-1.6-4.4-.4-2.5 0-5.1 1.2-7.3.3-.6.6-1.2 1-1.7l.6-.8.4-.5.4-.6.4-.5c.6-.8 1.1-1.7 1.5-2.6.1-.2.1-.4.2-.5 0-.1 0-.1.1-.2s.1-.2.1-.4c0-.1 0-.1.1-.2 0-.1.1-.2.1-.3s0-.2.1-.2 0-.2.1-.3v-.5-1.6-.3-.3-.3l-.1-.3c0-.1 0-.2-.1-.3l-.1-.3c0-.1 0-.2-.1-.3 0-.1-.1-.2-.1-.3s-.1-.2-.1-.2c0-.1-.1-.2-.1-.3s-.1-.1-.1-.2c-.3-.7-.6-1.3-1.1-1.9l-.7-.9-.2-.2s0-.1-.1-.1c0-.1-.1-.2-.1-.3-.4-.7-.7-1.5-1-2.3-.1-.2-.2-.5-.3-.7 0-.1 0-.1-.1-.2-.2-.4-.3-.7-.5-1.1-.1-.3-.3-.5-.4-.8 0-.1-.1-.2-.1-.2l-.3-.5-.2-.3-.3-.5-.2-.2c-.2-.2-.3-.5-.5-.7s-.4-.5-.6-.7l-.2-.2-.4-.5-.2-.2-.5-.5-.2-.2c-.7-.8-1.5-1.5-2.3-2.2l-.4-.4-1.4-1.3-.5-.4c-.1-.1-.3-.3-.5-.4-1.1-1-2.3-1.7-3.6-2.3-1.7-.6-3.5-.8-5.3-.5-2.9.3-5.6 1.2-8 2.8-.2.1-.4.3-.6.4-1.1.8-2 1.7-2.9 2.7-.1.2-.3.3-.4.5s-.2.3-.3.5c-1.3 1.8-2 4-2.8 6.1-2.8 7.3-5.6 14.9-6 22.7v4c.2 2.9.8 5.8 1.2 8.8l-.3.1c-3.6 1.4-4.2 4.1-4.2 4.1 0 .2.1.5.1.7 0 1.7-.5 3.3-1.3 4.7l-.2.4c-1.1 1.8-1.3 3.1-1.3 3.8 0 .3.1.6.2.8v.1c-.4 1.2-1 2.3-1.8 3.2-1.2 1.4-4.6 15.1-4.6 15.1.2.3.2.7.2 1.1 0 .3-.1.6-.2.9-.2.5-.1 1 .2 1.4.2.4.5.8.8 1.1 0 0 .8-.2-.5 1.1l-.1.1c-.4.6-.4 1.3.1 1.8.3.4.7.8 1.1 1.1 0 0 10.2 17.7 12.4 19.5 2.1 1.9 4.2 6.8 4.2 6.8l.6-.9.6-.9.7.9 1.3 1.7-.5 1c-.5 1-1 2-1.4 3.1v.3c0 .3.1.5.3.7-2.5 3.3-8.6 12.6-8.2 24.1v.4c.2 4 1.2 7.9 3 11.5.2 1.1.3 2.3.3 3.5 0 .2 0 .5-.1.7-.1.5-.1.9 0 1.4.3 2.5 1.5 7.4 1.5 7.4v2.6c.1 4.4.1 13 0 14.8-.1 1.1-.2 1.9-.3 2.5-.1.9-.2 1.3-.2 1.3s0 .3-.1.9c0 .2-.1.4-.1.7-.4 3.4-1.4 11.8-2 19.6 0 .3-.1.7-.1 1-.3 4.2-.4 8.2-.3 11v.4c0 .7.1 1.4.2 2 .3 1.8.5 4 .7 6.2 0 .2 0 .5.1.7.3 4.1.6 8.4.7 11.4v4.6l.4 3.6 2.2 18 .7 5.7 1.4 12.3 5.1-1 .1.6.2 1.9 1.4-.1v.6c-.2 4.3-.2 8.6-.2 8.6h.1c1.6.3 3.1.5 4.6.6v4.4h2.4l-.3-3.8v-.5c3.2.2 6.4.1 9.5-.3h.3l.4.4 3.6 4.2s7.1.4 13.4-1c4.7-1 9.6-5.6 9.8-7.4.1-.6-.4-.8-1.5-.6-3.4.8-9.1 0-12-.5-.6-1.5-2.5-5.7-3.9-9l-.2-.5c2.1-1.6 3.7-3.6 3.9-4.7.1-.6-.2-.9-1.3-.6-1.3.4-2.5.6-3.9.6h-.5s0-.1.1-.1c1-1.4 1.2-3.3 1.1-5.2 0-.7-.1-1.3-.2-2v-.1c-.2-.8-.4-1.7-.6-2.5v-.2c-.1-.3-.2-.5-.2-.5s1.4-9.9 1.9-17.1c.2-1.8.2-3.7.1-5.5 0-.5-.1-.9-.3-1.3-.2-.3-.4-.7-.4-1-.6-2.8.8-8.7 1.5-10.2l.6-1.5c.7-2 1.4-4.8 1.4-6.2.1-1.4.3-2.7.7-4 2.3-3.3 3-8 3.1-11.2.1-1.2.1-2.4 0-3.6 0-5.3.2-10.6.8-15.9.1-1 .2-2 .4-3.1.2-1.6.5-3.2.8-4.7 1-4.6.6-12.8-.2-20.6 0-.2 0-.5-.1-.7v-.1c-.8-7.6-1.9-14.7-2.3-17.5-.1-.8-.2-1.3-.2-1.3.5-1.8.8-3.6.9-5.5.1-.8-.1-1.7-.5-2.5-.1-.2-.2-.5-.3-.7v-.1c-.1-.9-.2-1.9-.1-2.8 0-.3 0-.7.1-1v-.1l.1-.6c0-.4.1-.7.1-1.1.1-.1.3-.1.4-.2.2-.1.5-.3.7-.5 2.3-2 2.5-7.3 2.2-12.6v-.2c-.4-4.5-1.1-8.9-2-13.2v-.1c-.1-.3-.1-.5-.1-.5s0-3.7-.2-7.3v-.2c-.2-3-.5-5.8-1.1-6.3-.4-.3-.6-1.2-.7-2.2v-.1c-.2-2.5-.2-5 0-7.5 1.1-2 1.8-4.2 2-6.4v-1.2-.2c0-.1 0-.3-.1-.4-.1-.5-.2-.9-.3-1.4.4-.1.9-.2 1.4-.3l.4-.1c6.7-1.7 17.1-6.6 19.2-7.3 2.9-1 3.7-5.2 3.7-5.2s.3-.2.7-.6c2.2-2.1 4.2-4.4 5.8-7 .8-1.3 1.4-2.6 1.9-4 .3-.7.4-1.4.6-2.2 0-.2.1-.5.1-.7v-.1l.5-.4c2.2-2 5.5-5.3 6.3-7.7-.1-1.1-.1-1.8-.6-2.4zm-66.4 184.7c0 1.2-.1 2.2-.2 3.2-.2 1.8-.3 3-.3 3-.1.1-.3.2-.4.4-.2.3-.4.7-.6 1.1l-.1-3c.1 0 .8-2 1.6-4.7zm-17.7-128.7c0-.1-.1-.2-.1-.3l.6-.1c.5-.1.9-.2 1.4-.3l.2.4.7 1.5 5 10.5c-.1.1-1.6 1.9-1.5 3.6 0 .3 0 .5.1.8.3.7.6 1 .9 1.1s.5 0 .7-.2c-.2.3-.4.6-.5.9-.1.2-.1.4-.1.6 0 .4.2.7.5.9.2.1.4.3.5.5.2.3.3.6.3 1v.5l-.7-.2-1.5-.4c.2-.3.5-.5.8-.6l-4.5-10s-1-4.3-2.2-8.5zm10.2 201-.1-.5v-.2h.2v.2c-.1.1-.1.3-.1.5zm-7.2-200.1-.7-1.5-.3.1.7 1.5 5 10.5c-.1.1-1.6 1.9-1.5 3.6 0 .3 0 .5.1.8.3.7.6 1 .9 1.1v-.1-.5-.2-.1-.2l.1-.2v-.2c0-.1.1-.1.1-.2v-.1s0-.1.1-.1c.1-.1.1-.3.2-.4s.1-.3.2-.4c.2-.3.4-.7.7-1zm5.5 17.6h-.4-.1c-.1 0-.1-.1-.2-.1l-.1-.1c-.2-.2-.3-.4-.4-.6-.1.2-.1.4-.1.6 0 .4.2.7.5.9.2.1.4.3.5.5v-.1c0-.2.1-.4.2-.6l.1-.2v-.1s0-.1.1-.1v-.1l.1-.1c0 .1-.1.1-.2.1zm-5.5-17.6-.7-1.5-.3.1.7 1.5 5 10.5c-.1.1-1.6 1.9-1.5 3.6 0 .3 0 .5.1.8.3.7.6 1 .9 1.1v-.1-.5-.2-.1-.2l.1-.2v-.2c0-.1.1-.1.1-.2v-.1l.1-.1c.1-.1.1-.3.2-.4s.1-.3.2-.4c.2-.3.4-.7.7-1zm5.5 17.6h-.4-.1c-.1 0-.1-.1-.2-.1l-.1-.1c-.2-.2-.3-.4-.4-.6-.1.2-.1.4-.1.6 0 .4.2.7.5.9.2.1.4.3.5.5 0-.2.1-.4.2-.6l.1-.2v-.1s0-.1.1-.1v-.1l.1-.1zm-5.5-17.6-.7-1.5-.3.1.7 1.5 5 10.5c-.1.1-1.6 1.9-1.5 3.6 0 .3 0 .5.1.8.3.7.6 1 .9 1.1v-.1-.5-.2-.1-.2l.1-.2v-.2c0-.1.1-.1.1-.2v-.1l.1-.1c.1-.1.1-.3.2-.4s.1-.3.2-.4c.2-.3.4-.7.7-1zm5.5 17.6h-.4-.1c-.1 0-.1-.1-.2-.1l-.1-.1c-.2-.2-.3-.4-.4-.6-.1.2-.1.4-.1.6 0 .4.2.7.5.9.2.1.4.3.5.5 0-.2.1-.4.2-.6l.1-.2v-.1s0-.1.1-.1v-.1l.1-.1zm-5.5-17.6-.7-1.5-.3.1.7 1.5 5 10.5c-.1.1-1.6 1.9-1.5 3.6 0 .3 0 .5.1.8.3.7.6 1 .9 1.1v-.1-.5-.2-.1-.2l.1-.2v-.2c0-.1.1-.1.1-.2v-.1l.1-.1c.1-.1.1-.3.2-.4s.1-.3.2-.4c.2-.3.4-.7.7-1zm5.5 17.6h-.4-.1c-.1 0-.1-.1-.2-.1l-.1-.1c-.2-.2-.3-.4-.4-.6-.1.2-.1.4-.1.6 0 .4.2.7.5.9.2.1.4.3.5.5 0-.2.1-.4.2-.6l.1-.2v-.1s0-.1.1-.1v-.1l.1-.1zm-5.5-17.6-.7-1.5-.3.1.7 1.5 5 10.5c-.1.1-1.6 1.9-1.5 3.6 0 .3 0 .5.1.8.3.7.6 1 .9 1.1v-.1-.5-.2-.1-.2l.1-.2v-.2c0-.1.1-.1.1-.2v-.1l.1-.1c.1-.1.1-.3.2-.4s.1-.3.2-.4c.2-.3.4-.7.7-1zm5.5 17.6h-.4-.1c-.1 0-.1-.1-.2-.1l-.1-.1c-.2-.2-.3-.4-.4-.6-.1.2-.1.4-.1.6 0 .4.2.7.5.9.2.1.4.3.5.5 0-.2.1-.4.2-.6l.1-.2v-.1s0-.1.1-.1v-.1l.1-.1zm-5.5-17.6-.7-1.5-.3.1.7 1.5 5 10.5c-.1.1-1.6 1.9-1.5 3.6 0 .3 0 .5.1.8.3.7.6 1 .9 1.1v-.1-.5-.2-.1-.2l.1-.2v-.2c0-.1.1-.1.1-.2v-.1l.1-.1c.1-.1.1-.3.2-.4s.1-.3.2-.4c.2-.3.4-.7.7-1zm5.5 17.6h-.4-.1c-.1 0-.1-.1-.2-.1l-.1-.1c-.2-.2-.3-.4-.4-.6-.1.2-.1.4-.1.6 0 .4.2.7.5.9.2.1.4.3.5.5 0-.2.1-.4.2-.6l.1-.2v-.1s0-.1.1-.1v-.1l.1-.1zm-5.5-17.6-.7-1.5-.3.1.7 1.5 5 10.5c-.1.1-1.6 1.9-1.5 3.6 0 .3 0 .5.1.8.3.7.6 1 .9 1.1v-.1-.5-.2-.1-.2l.1-.2v-.2c0-.1.1-.1.1-.2v-.1l.1-.1c.1-.1.1-.3.2-.4s.1-.3.2-.4c.2-.3.4-.7.7-1zm5.5 17.6h-.4-.1c-.1 0-.1-.1-.2-.1l-.1-.1c-.2-.2-.3-.4-.4-.6-.1.2-.1.4-.1.6 0 .4.2.7.5.9.2.1.4.3.5.5 0-.2.1-.4.2-.6l.1-.2v-.1s0-.1.1-.1v-.1l.1-.1zm-5.5-17.6-.7-1.5-.3.1.7 1.5 5 10.5c-.1.1-1.6 1.9-1.5 3.6 0 .3 0 .5.1.8.3.7.6 1 .9 1.1v-.1-.5-.2-.1-.2l.1-.2v-.2c0-.1.1-.1.1-.2v-.1l.1-.1c.1-.1.1-.3.2-.4s.1-.3.2-.4c.2-.3.4-.7.7-1zm5.5 17.6h-.4-.1c-.1 0-.1-.1-.2-.1l-.1-.1c-.2-.2-.3-.4-.4-.6-.1.2-.1.4-.1.6 0 .4.2.7.5.9.2.1.4.3.5.5 0-.2.1-.4.2-.6l.1-.2v-.1s0-.1.1-.1v-.1l.1-.1zm-5.5-17.6-.7-1.5-.3.1.7 1.5 5 10.5c-.1.1-1.6 1.9-1.5 3.6 0 .3 0 .5.1.8.3.7.6 1 .9 1.1v-.1-.5-.2-.1-.2l.1-.2v-.2c0-.1.1-.1.1-.2v-.1l.1-.1c.1-.1.1-.3.2-.4s.1-.3.2-.4c.2-.3.4-.7.7-1zm5.5 17.6h-.4-.1c-.1 0-.1-.1-.2-.1l-.1-.1c-.2-.2-.3-.4-.4-.6-.1.2-.1.4-.1.6 0 .4.2.7.5.9.2.1.4.3.5.5 0-.2.1-.4.2-.6.1-.1.1-.2.2-.3 0 0 0-.1.1-.1v-.1l.1-.1zm-5.5-17.6-.7-1.5-.3.1.7 1.5 5 10.5c-.1.1-1.6 1.9-1.5 3.6 0 .3 0 .5.1.8.3.7.6 1 .9 1.1v-.1-.5-.2-.1-.2l.1-.2v-.2c0-.1.1-.1.1-.2v-.1l.1-.1c.1-.1.1-.3.2-.4s.1-.3.2-.4c.2-.3.4-.7.7-1zm5.5 17.6h-.4-.1c-.1 0-.1-.1-.2-.1l-.1-.1c-.2-.2-.3-.4-.4-.6-.1.2-.1.4-.1.6 0 .4.2.7.5.9.2.1.4.3.5.5 0-.2.1-.4.2-.6.1-.1.1-.2.2-.3 0 0 0-.1.1-.1v-.1l.1-.1z" fill="url(#y)"/><path d="m250.4 383.2s7.6.9 11.3-.3c3.7-1.3-1.1 5.5-6.1 7.1-3.5 1-7.2 1.7-10.9 1.8l-5.9-5.5-6.3.5 1.1 6.1-1.9.2-.8-8z" fill="#444053"/><path d="m250.4 383.2s7.6.9 11.3-.3c3.7-1.3-1.1 5.5-6.1 7.1-3.5 1-7.2 1.7-10.9 1.8l-5.9-5.5-6.3.5 1.1 6.1-1.9.2-.8-8z" opacity=".1"/><path d="m261.4 397.2s9.1 2 13.8.9c4.6-1.1-2 6.5-8.3 7.9s-13.4 1-13.4 1l-6.5-7.4-7.6-.1.6 7.6h-2.4v-9.8z" fill="#444053"/><path d="m261.4 397.2s9.1 2 13.8.9c4.6-1.1-2 6.5-8.3 7.9s-13.4 1-13.4 1l-6.5-7.4-7.6-.1.6 7.6h-2.4v-9.8z" opacity=".1"/><path d="m227.6 223.2s-15.7 17.4-6.3 37.1c0 0 .5 3.5.1 4.1s1.5 8.8 1.5 8.8.3 14.8 0 17.3-.5 3.9-.5 3.9-3.5 27.3-2.4 35.4c1.1 8.2 1.6 22.7 1.6 22.7l4.6 39.1 24.1-4.5-10.9-53.6-.4-9.5s4.5-11.7 2.5-17.5c-2-5.9.5-80.9.5-80.9z" fill="#303d5c"/><path d="m227.6 223.2s-15.7 17.4-6.3 37.1c0 0 .5 3.5.1 4.1s1.5 8.8 1.5 8.8.3 14.8 0 17.3-.5 3.9-.5 3.9-3.5 27.3-2.4 35.4c1.1 8.2 1.6 22.7 1.6 22.7l4.6 39.1 24.1-4.5-10.9-53.6-.4-9.5s4.5-11.7 2.5-17.5c-2-5.9.5-80.9.5-80.9z" opacity=".05"/><path d="m239.1 307.4c2.8 5.3 1 18 1 18-3.6 3.1-1.6 30.4-1.6 30.4s-2.5 26.9-4.1 30.1c-1.6 3.1-1.4 16-1.4 16 18.4 3.4 30.4-3.9 30.4-3.9s-5.9-13.4-6-14c-.1-.4-.9.6-1.1.9.1-.2.4-.6 1.1-1.5 2.5-3.5 0-10.3 0-10.3s3.1-21.8 1.6-23.8.2-9.4 1.1-11.1c.9-1.8 2-5.9 2-7.6.1-1.4.3-2.7.8-4 3.9-5.5 3.1-14.7 3.1-14.7s-.2-13.2 2-23.6c2.3-10.4-2.8-39.8-2.8-39.8s1.7-5.8.4-7.9c-.6-1-.5-3.2-.2-5.4.3-2.7.9-5.2.9-5.2l-34.2-6.1c-.7 1.2-1.4 2.4-2 3.5-11.3 20.9-3.7 28.6-3.7 28.6l7.3 22.4s2.6 23.8 5.4 29z" fill="#303d5c"/><g fill="#efb7b9"><path d="m293.3 143.9 4.9 4.1s1-.8 2.2-1.9c3.1-2.8 8-7.8 6.2-9.9-2.5-2.9-5.1-1-5.3-.9.3-.3 5.9-6.4 3.6-5.9s-6.8 5.8-6.8 5.8l-3.5 6.2zm-65.5 67.7 5.8 1.8-4.4 7.6-5-6.5z"/><circle cx="241.3" cy="123.4" r="16.4"/><path d="m251 129.4s-14.9 23.7-.8 25.7c14.2 2-19 16.4-19 16.4l-12.4-12.5s12.9-22.3 10.9-30.8 21.3 1.2 21.3 1.2z"/></g><path d="m230.1 227.4c3.3 1 6.7 1.8 10.1 2.3 0 0 18.5 8.2 25.2 5.5.3-2.7.9-5.2.9-5.2l-34.2-6.1c-.7 1.2-1.4 2.4-2 3.5z" opacity=".1"/><path d="m213.2 165.5 3.3 6.9 3.8 7.8.5 1.1 4.5 9.7 5.7 12.3s-2 2.4-1.4 4.3c.6 1.8 1.5 1 1.6.9-.1.1-1.3 1.8-.2 2.5s.7 2.4.7 2.4-4.6 7.6-5.5 10.4 14 5.1 14 5.1 21.2 9.4 26.4 4.8c5.3-4.6 0-26.4 0-26.4s0-12.5-1.4-13.7-.7-9.8-.7-9.8c3.6-6.6 1.1-10.4 1.1-10.4l1-17s-1.6-1.8-2.9-1.9c-.8-.1-1.6-.1-2.4 0 0 0-.7-.2-1.6-.5-2-.6-5.3-1.4-6.5-.8-1.8.9-13-1.4-13-1.4-4.9-.7-9.8-1.2-14.7-1.4-1.7-.1-3.4.1-5 .5-4.1 1.3-4.8 4.2-4.8 4.2s.5 2.5-1.5 5.8c-1.9 3.2-1 4.6-1 4.6z" fill="#fff200"/><path d="m293.3 143.9 4.9 4.1s1-.8 2.2-1.9c.4-4.2-3.2-4.8-5.8-4.7z" opacity=".1"/><path d="m264.5 156.1 2.1.1s5 .6 6.6-.9 7.4-2 7.4-2 1.6-3.3 3.4-4.3 6-2.9 6.1-3.9 1.6-2.9 1.6-2.9 9.4-2.3 8 5.1-9 13.8-9 13.8-.9 4.1-3.8 5.1-21.5 9.8-24.6 7.5c-2.8-2.1 2.2-17.6 2.2-17.6z" fill="#fff200"/><path d="m214.3 160.8c2-3.3 1.5-5.8 1.5-5.8s.7-3 4.8-4.2c.8-.2 1.6-.4 2.4-.5-4 1.3-4.7 4.2-4.7 4.2s.5 2.5-1.5 5.8-1.1 4.6-1.1 4.6l3.3 6.9 3.8 7.8.5 1.1 4.5 9.7 5.7 12.3s-2 2.4-1.4 4.3c.6 1.8 1.5 1 1.6.9-.1.1-1.3 1.8-.2 2.5s.7 2.4.7 2.4-4.6 7.6-5.5 10.4 14 5.1 14 5.1 14.7 6.5 22.6 6c-6.8 2.6-25.2-5.5-25.2-5.5s-14.9-2.4-14-5.1c.9-2.8 5.5-10.4 5.5-10.4s.4-1.6-.7-2.4.1-2.3.2-2.5c-.1.1-1 .9-1.6-.9-.6-1.9 1.4-4.3 1.4-4.3l-5.7-12.3-4.5-9.7-.5-1.1-3.8-7.8-3.3-6.9c.1 0-.8-1.3 1.2-4.6z" opacity=".1"/><path d="m215.4 163.6-2.3 1.9c-.4 1.2-1 2.4-1.9 3.4-1.3 1.4-4.6 15-4.6 15 .3.6.3 1.4 0 2-.5 1 1 2.5 1 2.5s.7-.2-.5 1.1c-1.3 1.4 1.1 3 1.1 3s10.3 17.5 12.4 19.4 4.3 6.8 4.3 6.8 4.5-7 5.5-7.1l-4.4-9.9s-3-13.8-5.3-16.3 1.1-11.2 1.1-11.2z" fill="#fff200"/><path d="m214 189.2c1.9 2.3 5.2 2.7 8.1 2.4.4-.1.9-.1 1.3-.2.6-.1 1.3-.3 1.9-.4 2.2-.6 4.3-1.7 6.2-3.1.4-.4.9-.6 1.4-.8 1.2-.3 2.3.6 3 1.6.6 1 .9 2.2 1.6 3.2 1.3 2 3.8 3 6.2 3 2.4.1 4.7-.7 7-1.4-1.8-2.3-3.7-4.6-4.5-7.4-.4-1.8-.5-3.7-.4-5.6.5-8.9 3.6-18.2 10.8-23.4 1.3-.9 2.8-1.9 3.2-3.3-2-.6-5.3-1.4-6.5-.8-1.8.9-13-1.4-13-1.4-4.9-.7-9.8-1.2-14.7-1.4-1.7-.1-3.4.1-5 .5.6 3.8 1.2 7.5.4 11.2-.5 2.3-1.3 4.5-2.5 6.6-.6 1.2-1.3 2.5-2 3.7-1.9 3.4-3.7 6.9-4.1 10.7-.1 2.3.2 4.6 1.6 6.3zm24.7 17.6c-1-.1-2-.5-2.9-.3-.8.2-1.6.7-2.2 1.3h6.4c1.7 0 4.2.1 5.4-1.1-1.1-1.1-5 .3-6.7.1z" opacity=".1"/><path d="m261.1 121.5c2 2.7 2.4 6.3 1.1 9.4-1 2.4-3 4.3-4.2 6.6-1.9 3.7-1.7 8.1.4 11.6.5.6.8 1.3 1 2.1.3 1.9-1.7 3.3-3.3 4.4-7.2 5.2-10.3 14.5-10.8 23.4-.2 1.9-.1 3.8.3 5.6.7 2.8 2.6 5.2 4.5 7.4-2.3.7-4.6 1.4-7 1.4s-4.9-1-6.2-3c-.7-1-1-2.2-1.6-3.2s-1.8-1.9-3-1.6c-.5.2-1 .4-1.4.8-2.8 2-6 3.3-9.4 3.7-2.9.3-6.2-.1-8.1-2.4-1.4-1.6-1.7-3.9-1.5-6.1.7-7.6 7.1-13.6 8.6-21 1.2-6.1-1-12.2-1.4-18.4-.6-9.1 2.7-18 6-26.5.7-2.1 1.7-4.1 2.9-6 2.7-4 7.4-6.4 12.2-6.9 1.8-.2 3.6-.1 5.3.5 1.7.7 3.1 1.9 4.5 3.1 3.1 2.7 6.3 5.5 8.1 9.2.7 1.5 1.2 3.1 2 4.6z" fill="#3f3d56"/><path d="m258.1 118.2c-.8-1.5-1.3-3.1-2-4.6-.7-1.4-1.6-2.7-2.6-3.9 1.9 1.7 3.4 3.8 4.6 6.1.7 1.5 1.2 3.1 2 4.5l-1-.8c.3.3.5.7.7 1.1-.7-.9-1.3-1.6-1.7-2.4zm-38.5 69.7c3.4-.4 6.7-1.7 9.4-3.7.4-.4.9-.6 1.4-.8 1.2-.3 2.3.6 3 1.6.1.2.2.4.4.7-.4-.2-.9-.2-1.3-.1-.5.2-1 .4-1.4.8-2.8 2-6 3.3-9.4 3.7-2.9.3-6.2-.1-8.1-2.4l-.6-.9c1.7 1.1 4.3 1.4 6.6 1.1zm21.5 3.4c2.4.1 4.7-.7 7-1.4-1.8-2.3-3.7-4.6-4.5-7.4-.4-1.8-.5-3.7-.4-5.6.5-8.9 3.6-18.2 10.9-23.4 1.6-1.1 3.6-2.5 3.3-4.4-.2-.8-.5-1.5-1-2.1-2.1-3.5-2.3-7.9-.4-11.6 1.2-2.3 3.2-4.2 4.2-6.7 1.1-2.7 1-5.8-.4-8.3.3.4.7.7 1.1 1 .3.4.6.8.9 1.1 1.4 2.6 1.5 5.6.4 8.3-1 2.4-3 4.3-4.2 6.6-1.9 3.7-1.7 8.1.4 11.6.5.6.8 1.3 1 2.1.3 1.9-1.7 3.3-3.3 4.4-7.2 5.2-10.3 14.5-10.8 23.4-.2 1.9-.1 3.8.3 5.6.7 2.8 2.6 5.2 4.5 7.4-2.3.7-4.6 1.4-7 1.4s-4.9-1-6.2-3c-.1-.1-.2-.3-.2-.4 1.3.9 2.8 1.3 4.4 1.4z" opacity=".1"/><path d="m165.7 75.4v10.7h-46.4c1.4-2 2.9-3.9 4.3-5.8.2-.3.4-.5.6-.8l2.2-2.7.3-.4.8-1zm47.3 0h48.8v10.7h-48.8zm112.1 0h48.8v10.7h-48.8zm94.8 0h48.8v10.7h-48.8z" fill="#fff200" opacity=".2"/></svg>