<?xml version="1.0" encoding="utf-8"?>
<!-- Uploaded to: SVG Repo, www.svgrepo.com, Generator: SVG Repo Mixer Tools -->
<!DOCTYPE svg PUBLIC "-//W3C//DTD SVG 1.1//EN" "http://www.w3.org/Graphics/SVG/1.1/DTD/svg11.dtd">
<svg fill="#000000" version="1.1" id="Layer_1" xmlns="http://www.w3.org/2000/svg" xmlns:xlink="http://www.w3.org/1999/xlink" 
	 width="800px" height="800px" viewBox="0 0 512 512" enable-background="new 0 0 512 512" xml:space="preserve">
<g>
	<path d="M430.452,326l-13.153-7.627c0.65-5.842,0.967-11.535,0.967-17.197c0-5.637-0.316-11.33-0.967-17.173l13.135-7.595
		c8.914-5.159,15.31-13.474,17.963-23.42c2.654-9.933,1.283-20.33-3.857-29.244l-27.176-47.105
		c-10.248-17.744-34.867-24.354-52.678-14.124l-13.172,7.595c-5.043-3.672-10.313-6.977-15.742-10.03v41.397
		c1.019,0.818,2.203,1.399,3.207,2.25c5.526,4.662,13.354,5.396,19.614,1.771l23.183-13.372c0.67-0.399,1.403-0.58,2.171-0.58
		c0.585,0,2.64,0.148,3.807,2.184l27.175,47.105c0.753,1.302,0.651,2.523,0.451,3.323c-0.219,0.786-0.753,1.901-2.035,2.636
		l-23.202,13.404c-6.229,3.625-9.532,10.75-8.264,17.848c1.487,8.18,2.203,15.756,2.203,23.131c0,7.395-0.716,14.976-2.203,23.156
		c-1.269,7.092,2.017,14.222,8.264,17.828l23.202,13.438c2.086,1.199,2.788,3.871,1.584,5.958l-27.175,47.087
		c-1.167,2.035-3.222,2.189-3.807,2.189c-0.768,0-1.501-0.187-2.171-0.586l-23.201-13.387c-6.274-3.605-14.12-2.891-19.614,1.785
		c-11.819,10.03-25.288,17.797-40.045,23.053c-6.81,2.436-11.35,8.878-11.35,16.109v26.822c0,2.403-1.971,4.374-4.374,4.374h-54.384
		c-2.402,0-4.373-1.971-4.373-4.374v-26.822c0-7.231-4.541-13.674-11.351-16.109c-14.756-5.256-28.226-13.022-40.045-23.053
		c-5.489-4.676-13.334-5.391-19.613-1.785l-23.202,13.387c-0.669,0.399-1.403,0.586-2.171,0.586c-0.585,0-2.635-0.154-3.806-2.189
		l-27.176-47.087c-1.199-2.087-0.497-4.759,1.589-5.958l23.202-13.438c6.242-3.606,9.528-10.736,8.259-17.828
		c-1.482-8.181-2.203-15.762-2.203-23.156c0-7.375,0.721-14.951,2.203-23.131c1.27-7.098-2.035-14.223-8.259-17.848L98.66,246.793
		c-1.287-0.734-1.821-1.85-2.04-2.636c-0.2-0.8-0.297-2.021,0.451-3.323l27.176-47.105c1.171-2.035,3.221-2.184,3.806-2.184
		c0.768,0,1.502,0.181,2.171,0.58l23.188,13.372c6.256,3.626,14.087,2.892,19.613-1.771c0.999-0.851,2.185-1.432,3.202-2.25v-41.397
		c-5.424,3.054-10.699,6.358-15.742,10.03l-13.167-7.595c-17.811-10.229-42.435-3.62-52.683,14.124L67.46,223.744
		c-5.14,8.914-6.511,19.312-3.857,29.244c2.658,9.946,9.05,18.261,17.964,23.42l13.135,7.595
		c-0.651,5.843-0.967,11.536-0.967,17.173c0,5.662,0.315,11.355,0.967,17.197L81.548,326
		c-18.396,10.615-24.722,34.236-14.088,52.646l27.176,47.091c6.879,11.903,19.679,19.279,33.417,19.279
		c6.744,0,13.404-1.785,19.266-5.158l13.186-7.609c9.264,6.744,19.214,12.466,29.746,17.123v15.258
		c0,21.269,17.294,38.559,38.558,38.559h54.384c21.269,0,38.559-17.29,38.559-38.559v-15.258
		c10.536-4.657,20.482-10.379,29.745-17.123l13.19,7.609c5.856,3.373,12.517,5.158,19.261,5.158
		c13.738,0,26.543-7.376,33.417-19.279l27.176-47.091C455.173,360.236,448.848,336.615,430.452,326z"/>
	<path d="M171.119,110.051h39.33v154.436c0,10.3,8.343,18.647,18.643,18.647h53.849c10.3,0,18.647-8.348,18.647-18.647V110.051
		h39.292c3.458,0,6.563-2.068,7.878-5.258c1.32-3.188,0.604-6.859-1.836-9.299l-83.711-83.693c-2.004-2.003-4.606-2.988-7.209-2.988
		c-2.607,0-5.21,0.985-7.213,2.988l-83.712,83.693c-2.435,2.439-3.155,6.111-1.835,9.299
		C164.562,107.982,167.666,110.051,171.119,110.051z"/>
</g>
</svg>